<?xml version="1.0" encoding="UTF-8" standalone="no"?>
<svg
   width="205 mm"
   height="149 mm"
   viewBox="0 0 772 560"
   shape-rendering="geometricPrecision"
   style="stroke-linejoin: round; stroke-linecap: round;"
   version="1.1"
   id="svg28"
   sodipodi:docname="vi.svg"
   inkscape:version="1.4 (e7c3feb1, 2024-10-09)"
   xmlns:inkscape="http://www.inkscape.org/namespaces/inkscape"
   xmlns:sodipodi="http://sodipodi.sourceforge.net/DTD/sodipodi-0.dtd"
   xmlns="http://www.w3.org/2000/svg"
   xmlns:svg="http://www.w3.org/2000/svg">
  <defs
     id="defs28" />
  <sodipodi:namedview
     id="namedview28"
     pagecolor="#ffffff"
     bordercolor="#000000"
     borderopacity="0.25"
     inkscape:showpageshadow="2"
     inkscape:pageopacity="0.0"
     inkscape:pagecheckerboard="0"
     inkscape:deskcolor="#d1d1d1"
     inkscape:zoom="0.37142857"
     inkscape:cx="561.34616"
     inkscape:cy="502.11539"
     inkscape:window-width="1584"
     inkscape:window-height="778"
     inkscape:window-x="0"
     inkscape:window-y="0"
     inkscape:window-maximized="0"
     inkscape:current-layer="svg28" />
  <g
     id="1color-group-color-91-122-175"
     data-color="#5b7aaf"
     data-name="Color 1">
    <path
       d="m 0,0 v 0 c 0,0 -32.998316,107.00168 0,140 4.3324319,4.33243 14.04852,4.33243 18.380952,0 32.998316,-32.99832 -32.998316,-107.001684 0,-140 4.332432,-4.3324322 14.048521,-4.3324322 18.380953,0 32.998316,32.998316 -32.9983165,107.00168 0,140 4.332432,4.33243 14.04852,4.33243 18.380952,0 32.998316,-32.99832 -32.998316,-107.001684 0,-140 4.332432,-4.3324322 14.048521,-4.3324322 18.380953,0 32.99832,32.998316 -32.998316,107.00168 0,140 4.332432,4.33243 14.04852,4.33243 18.380952,0 32.998318,-32.99832 -32.998316,-107.001684 0,-140 4.332431,-4.332431 18.380948,0 18.380948,0"
       stroke="#5b7aaf"
       fill="none"
       stroke-width="1"
       stroke-linejoin="round"
       stroke-linecap="round"
       vector-effect="non-scaling-stroke"
       id="path1"
       sodipodi:nodetypes="cssssssssssssc" />
    <path
       d="m 110.28571,0 v 0 c 0,0 -32.998316,107.00168 0,140 4.33243,4.33243 14.04853,4.33243 18.38096,0 32.99832,-32.99832 -32.998316,-107.001684 0,-140 4.33243,-4.3324315 14.04852,-4.3324315 18.38095,0 32.99832,32.998316 -32.99832,107.00168 0,140 4.33243,4.33243 14.04852,4.33243 18.38095,0 32.99832,-32.99832 -32.99832,-107.001684 0,-140 4.33243,-4.3324315 14.04852,-4.3324315 18.38095,0 32.99832,32.998316 -32.99832,107.00168 0,140 4.33243,4.33243 14.04853,4.33243 18.38096,0 32.99832,-32.99832 -32.99832,-107.001684 0,-140 4.33243,-4.3324315 18.38095,0 18.38095,0"
       stroke="#5b7aaf"
       fill="none"
       stroke-width="1"
       stroke-linejoin="round"
       stroke-linecap="round"
       vector-effect="non-scaling-stroke"
       id="path2"
       sodipodi:nodetypes="cssssssssssssc" />
    <path
       d="m 220.57143,0 v 0 c 0,0 -32.99832,107.00168 0,140 4.33243,4.33243 14.04852,4.33243 18.38095,0 32.99832,-32.99832 -32.99832,-107.001684 0,-140 4.33243,-4.3324315 14.04852,-4.3324315 18.38095,0 32.99832,32.998316 -32.99832,107.00168 0,140 4.33243,4.33243 14.04853,4.33243 18.38096,0 32.99832,-32.99832 -32.99832,-107.001684 0,-140 4.33243,-4.3324315 14.04852,-4.3324315 18.38095,0 32.99832,32.998316 -32.99832,107.00168 0,140 4.33243,4.33243 14.04852,4.33243 18.38095,0 32.99832,-32.99832 -32.99832,-107.001684 0,-140 4.33243,-4.3324315 18.38095,0 18.38095,0"
       stroke="#5b7aaf"
       fill="none"
       stroke-width="1"
       stroke-linejoin="round"
       stroke-linecap="round"
       vector-effect="non-scaling-stroke"
       id="path3"
       sodipodi:nodetypes="cssssssssssssc" />
    <path
       d="m 330.85714,0 v 0 c 0,0 -32.99832,107.00168 0,140 4.33243,4.33243 14.04853,4.33243 18.38096,0 32.99832,-32.99832 -32.99832,-107.001684 0,-140 4.33243,-4.3324315 14.04852,-4.3324315 18.38095,0 32.99832,32.998316 -32.99832,107.00168 0,140 4.33243,4.33243 14.04852,4.33243 18.38095,0 32.99832,-32.99832 -32.99832,-107.001684 0,-140 4.33243,-4.3324315 14.04852,-4.3324315 18.38095,0 32.99832,32.998316 -32.99832,107.00168 0,140 4.33243,4.33243 14.04852,4.33243 18.38095,0 32.99832,-32.99832 -32.99832,-107.001684 0,-140 4.33243,-4.3324338 18.38096,0 18.38096,0"
       stroke="#5b7aaf"
       fill="none"
       stroke-width="1"
       stroke-linejoin="round"
       stroke-linecap="round"
       vector-effect="non-scaling-stroke"
       id="path4"
       sodipodi:nodetypes="cssssssssssssc" />
    <path
       d="m 441.14286,0 v 0 c 0,0 -32.99832,107.00168 0,140 4.33243,4.33243 14.04852,4.33243 18.38095,0 32.99832,-32.99832 -32.99832,-107.001684 0,-140 4.33243,-4.3324315 14.04852,-4.3324315 18.38095,0 32.99832,32.998316 -32.99832,107.00168 0,140 4.33243,4.33243 14.04852,4.33243 18.38095,0 32.99832,-32.99832 -32.99832,-107.001684 0,-140 4.33243,-4.3324338 14.04853,-4.3324338 18.38096,0 32.99832,32.998316 -32.99832,107.00168 0,140 4.33243,4.33243 14.04852,4.33243 18.38095,0 32.99832,-32.99832 -32.99832,-107.001684 0,-140 4.33243,-4.3324315 18.38095,0 18.38095,0"
       stroke="#5b7aaf"
       fill="none"
       stroke-width="1"
       stroke-linejoin="round"
       stroke-linecap="round"
       vector-effect="non-scaling-stroke"
       id="path5"
       sodipodi:nodetypes="cssssssssssssc" />
    <path
       d="m 551.42857,0 v 0 c 0,0 -32.99832,107.00168 0,140 4.33243,4.33243 14.04852,4.33243 18.38095,0 32.99832,-32.99832 -32.99832,-107.001684 0,-140 4.33243,-4.3324338 14.04853,-4.3324338 18.38096,0 32.99832,32.998316 -32.99832,107.00168 0,140 4.33243,4.33243 14.04852,4.33243 18.38095,0 32.99832,-32.99832 -32.99832,-107.001684 0,-140 4.33243,-4.3324315 14.04852,-4.3324315 18.38095,0 32.99832,32.998316 -32.99832,107.00168 0,140 4.33243,4.33243 14.04852,4.33243 18.38095,0 32.99832,-32.99832 -32.99832,-107.001684 0,-140 4.33243,-4.3324338 18.38096,0 18.38096,0"
       stroke="#5b7aaf"
       fill="none"
       stroke-width="1"
       stroke-linejoin="round"
       stroke-linecap="round"
       vector-effect="non-scaling-stroke"
       id="path6"
       sodipodi:nodetypes="cssssssssssssc" />
    <path
       d="m 661.71429,0 v 0 c 0,0 -32.99832,107.00168 0,140 4.33243,4.33243 14.04852,4.33243 18.38095,0 32.99832,-32.99832 -32.99832,-107.001684 0,-140 4.33243,-4.3324315 14.04852,-4.3324315 18.38095,0 32.99832,32.998316 -32.99832,107.00168 0,140 4.33243,4.33243 14.04852,4.33243 18.38095,0 32.99832,-32.99832 -32.99832,-107.001684 0,-140 4.33243,-4.3324338 14.04853,-4.3324338 18.38096,0 32.99832,32.998316 -32.99832,107.00168 0,140 4.33243,4.33243 14.04852,4.33243 18.38095,0 32.99832,-32.99832 -32.99832,-107.001684 0,-140 C 757.95148,-4.3324315 772,0 772,0"
       stroke="#5b7aaf"
       fill="none"
       stroke-width="1"
       stroke-linejoin="round"
       stroke-linecap="round"
       vector-effect="non-scaling-stroke"
       id="path7"
       sodipodi:nodetypes="cssssssssssssc" />
    <path
       d="m 551.42857,140 v 0 c 0,0 32.99832,107.00168 0,140 -4.33243,4.33243 -14.04852,4.33243 -18.38095,0 -32.99832,-32.99832 32.99832,-107.00168 0,-140 -4.33243,-4.33243 -14.04852,-4.33243 -18.38095,0 -32.99832,32.99832 32.99832,107.00168 0,140 -4.33243,4.33243 -14.04853,4.33243 -18.38096,0 -32.99832,-32.99832 32.99832,-107.00168 0,-140 -4.33243,-4.33243 -14.04852,-4.33243 -18.38095,0 -32.99832,32.99832 32.99832,107.00168 0,140 -4.33243,4.33243 -14.04852,4.33243 -18.38095,0 -32.99832,-32.99832 32.99832,-107.00168 0,-140 -4.33243,-4.33243 -18.38095,0 -18.38095,0"
       stroke="#5b7aaf"
       fill="none"
       stroke-width="1"
       stroke-linejoin="round"
       stroke-linecap="round"
       vector-effect="non-scaling-stroke"
       id="path8"
       sodipodi:nodetypes="cssssssssssssc" />
    <path
       d="m 330.85714,140 v 0 c 0,0 32.99832,107.00168 0,140 -4.33243,4.33243 -14.04852,4.33243 -18.38095,0 -32.99832,-32.99832 32.99832,-107.00168 0,-140 -4.33243,-4.33243 -14.04852,-4.33243 -18.38095,0 -32.99832,32.99832 32.99832,107.00168 0,140 -4.33243,4.33243 -14.04852,4.33243 -18.38095,0 -32.99832,-32.99832 32.99832,-107.00168 0,-140 -4.33243,-4.33243 -14.04853,-4.33243 -18.38096,0 -32.99832,32.99832 32.99832,107.00168 0,140 -4.33243,4.33243 -14.04852,4.33243 -18.38095,0 -32.99832,-32.99832 32.99832,-107.00168 0,-140 -4.33243,-4.33243 -18.38095,0 -18.38095,0"
       stroke="#5b7aaf"
       fill="none"
       stroke-width="1"
       stroke-linejoin="round"
       stroke-linecap="round"
       vector-effect="non-scaling-stroke"
       id="path9"
       sodipodi:nodetypes="cssssssssssssc" />
    <path
       d="m 220.57143,140 v 0 c 0,0 32.99832,107.00168 0,140 -4.33243,4.33243 -14.04852,4.33243 -18.38095,0 -32.99832,-32.99832 32.99832,-107.00168 0,-140 -4.33243,-4.33243 -14.04853,-4.33243 -18.38096,0 -32.99832,32.99832 32.99832,107.00168 0,140 -4.33243,4.33243 -14.04852,4.33243 -18.38095,0 -32.99832,-32.99832 32.99832,-107.00168 0,-140 -4.33243,-4.33243 -14.04852,-4.33243 -18.38095,0 -32.99832,32.99832 32.99832,107.00168 0,140 -4.33243,4.33243 -14.04852,4.33243 -18.38095,0 -32.998316,-32.99832 32.99832,-107.00168 0,-140 -4.33243,-4.33243 -18.38096,0 -18.38096,0"
       stroke="#5b7aaf"
       fill="none"
       stroke-width="1"
       stroke-linejoin="round"
       stroke-linecap="round"
       vector-effect="non-scaling-stroke"
       id="path10"
       sodipodi:nodetypes="cssssssssssssc" />
    <path
       d="m 110.28571,140 v 0 c 0,0 32.99832,107.00168 0,140 -4.33243,4.33243 -14.048517,4.33243 -18.380948,0 -32.998316,-32.99832 32.998318,-107.00168 0,-140 -4.332432,-4.33243 -14.04852,-4.33243 -18.380952,0 -32.998316,32.99832 32.99832,107.00168 0,140 -4.332432,4.33243 -14.048521,4.33243 -18.380953,0 -32.998316,-32.99832 32.998316,-107.00168 0,-140 -4.332432,-4.33243 -14.04852,-4.33243 -18.380952,0 -32.9983165,32.99832 32.998316,107.00168 0,140 -4.332432,4.33243 -14.048521,4.33243 -18.380953,0 -32.998316,-32.99832 32.998316,-107.00168 0,-140 C 14.04852,135.66757 0,140 0,140"
       stroke="#5b7aaf"
       fill="none"
       stroke-width="1"
       stroke-linejoin="round"
       stroke-linecap="round"
       vector-effect="non-scaling-stroke"
       id="path11"
       sodipodi:nodetypes="cssssssssssssc" />
    <path
       d="m 330.85714,280 v 0 c 0,0 -32.99832,107.00168 0,140 4.33243,4.33243 14.04853,4.33243 18.38096,0 32.99832,-32.99832 -32.99832,-107.00168 0,-140 4.33243,-4.33243 14.04852,-4.33243 18.38095,0 32.99832,32.99832 -32.99832,107.00168 0,140 4.33243,4.33243 14.04852,4.33243 18.38095,0 32.99832,-32.99832 -32.99832,-107.00168 0,-140 4.33243,-4.33243 14.04852,-4.33243 18.38095,0 32.99832,32.99832 -32.99832,107.00168 0,140 4.33243,4.33243 14.04852,4.33243 18.38095,0 32.99832,-32.99832 -32.99832,-107.00168 0,-140 4.33243,-4.33243 18.38096,0 18.38096,0"
       stroke="#5b7aaf"
       fill="none"
       stroke-width="1"
       stroke-linejoin="round"
       stroke-linecap="round"
       vector-effect="non-scaling-stroke"
       id="path12"
       sodipodi:nodetypes="cssssssssssssc" />
    <path
       d="m 441.14286,280 v 0 c 0,0 -32.99832,107.00168 0,140 4.33243,4.33243 14.04852,4.33243 18.38095,0 32.99832,-32.99832 -32.99832,-107.00168 0,-140 4.33243,-4.33243 14.04852,-4.33243 18.38095,0 32.99832,32.99832 -32.99832,107.00168 0,140 4.33243,4.33243 14.04852,4.33243 18.38095,0 32.99832,-32.99832 -32.99832,-107.00168 0,-140 4.33243,-4.33243 14.04853,-4.33243 18.38096,0 32.99832,32.99832 -32.99832,107.00168 0,140 4.33243,4.33243 14.04852,4.33243 18.38095,0 32.99832,-32.99832 -32.99832,-107.00168 0,-140 4.33243,-4.33243 18.38095,0 18.38095,0"
       stroke="#5b7aaf"
       fill="none"
       stroke-width="1"
       stroke-linejoin="round"
       stroke-linecap="round"
       vector-effect="non-scaling-stroke"
       id="path13"
       sodipodi:nodetypes="cssssssssssssc" />
    <path
       d="m 551.42857,280 v 0 c 0,0 -32.99832,107.00168 0,140 4.33243,4.33243 14.04852,4.33243 18.38095,0 32.99832,-32.99832 -32.99832,-107.00168 0,-140 4.33243,-4.33243 14.04853,-4.33243 18.38096,0 32.99832,32.99832 -32.99832,107.00168 0,140 4.33243,4.33243 14.04852,4.33243 18.38095,0 32.99832,-32.99832 -32.99832,-107.00168 0,-140 4.33243,-4.33243 14.04852,-4.33243 18.38095,0 32.99832,32.99832 -32.99832,107.00168 0,140 4.33243,4.33243 14.04852,4.33243 18.38095,0 32.99832,-32.99832 -32.99832,-107.00168 0,-140 4.33243,-4.33243 18.38096,0 18.38096,0"
       stroke="#5b7aaf"
       fill="none"
       stroke-width="1"
       stroke-linejoin="round"
       stroke-linecap="round"
       vector-effect="non-scaling-stroke"
       id="path14"
       sodipodi:nodetypes="cssssssssssssc" />
  </g>
  <g
     id="2color-group-color-207-216-222"
     data-color="#cfd8de"
     data-name="Color 2">
    <path
       d="m 0,280 v 0 c 0,0 -32.998316,107.00168 0,140 6.4986481,6.49865 21.072781,6.49865 27.571429,0 32.998316,-32.99832 -32.9983165,-107.00168 0,-140 6.498648,-6.49865 21.07278,-6.49865 27.571428,0 32.998316,32.99832 -32.998316,107.00168 0,140 6.498648,6.49865 21.072781,6.49865 27.571429,0 32.998314,-32.99832 -32.998316,-107.00168 0,-140 6.498647,-6.49865 27.571424,0 27.571424,0"
       stroke="#cfd8de"
       fill="none"
       stroke-width="1"
       stroke-linejoin="round"
       stroke-linecap="round"
       vector-effect="non-scaling-stroke"
       id="path15"
       sodipodi:nodetypes="cssssssssc" />
  </g>
  <g
     id="3color-group-color-160-167-172"
     data-color="#a0a7ac"
     data-name="Color 3">
    <path
       d="m 772,140 v 0 c 0,0 32.99832,107.00168 0,140 -4.33243,4.33243 -14.04852,4.33243 -18.38095,0 -32.99832,-32.99832 32.99832,-107.00168 0,-140 -4.33243,-4.33243 -14.04852,-4.33243 -18.38095,0 -32.99832,32.99832 32.99832,107.00168 0,140 -4.33243,4.33243 -14.04853,4.33243 -18.38096,0 -32.99832,-32.99832 32.99832,-107.00168 0,-140 -4.33243,-4.33243 -14.04852,-4.33243 -18.38095,0 -32.99832,32.99832 32.99832,107.00168 0,140 -4.33243,4.33243 -14.04852,4.33243 -18.38095,0 -32.99832,-32.99832 32.99832,-107.00168 0,-140 -4.33243,-4.33243 -18.38095,0 -18.38095,0"
       stroke="#a0a7ac"
       fill="none"
       stroke-width="1"
       stroke-linejoin="round"
       stroke-linecap="round"
       vector-effect="non-scaling-stroke"
       id="path16"
       sodipodi:nodetypes="cssssssssssssc" />
    <path
       d="m 661.71429,140 v 0 c 0,0 32.99832,107.00168 0,140 -4.33243,4.33243 -14.04853,4.33243 -18.38096,0 -32.99832,-32.99832 32.99832,-107.00168 0,-140 -4.33243,-4.33243 -14.04852,-4.33243 -18.38095,0 -32.99832,32.99832 32.99832,107.00168 0,140 -4.33243,4.33243 -14.04852,4.33243 -18.38095,0 -32.99832,-32.99832 32.99832,-107.00168 0,-140 -4.33243,-4.33243 -14.04852,-4.33243 -18.38095,0 -32.99832,32.99832 32.99832,107.00168 0,140 -4.33243,4.33243 -14.04853,4.33243 -18.38096,0 -32.99832,-32.99832 32.99832,-107.00168 0,-140 -4.33243,-4.33243 -18.38095,0 -18.38095,0"
       stroke="#a0a7ac"
       fill="none"
       stroke-width="1"
       stroke-linejoin="round"
       stroke-linecap="round"
       vector-effect="non-scaling-stroke"
       id="path17"
       sodipodi:nodetypes="cssssssssssssc" />
    <path
       d="m 772,420 v 0 c 0,0 32.99832,107.00168 0,140 -4.33243,4.33243 -14.04852,4.33243 -18.38095,0 -32.99832,-32.99832 32.99832,-107.00168 0,-140 -4.33243,-4.33243 -14.04852,-4.33243 -18.38095,0 -32.99832,32.99832 32.99832,107.00168 0,140 -4.33243,4.33243 -14.04853,4.33243 -18.38096,0 -32.99832,-32.99832 32.99832,-107.00168 0,-140 -4.33243,-4.33243 -14.04852,-4.33243 -18.38095,0 -32.99832,32.99832 32.99832,107.00168 0,140 -4.33243,4.33243 -14.04852,4.33243 -18.38095,0 -32.99832,-32.99832 32.99832,-107.00168 0,-140 -4.33243,-4.33243 -18.38095,0 -18.38095,0"
       stroke="#a0a7ac"
       fill="none"
       stroke-width="1"
       stroke-linejoin="round"
       stroke-linecap="round"
       vector-effect="non-scaling-stroke"
       id="path18"
       sodipodi:nodetypes="cssssssssssssc" />
    <path
       d="m 330.85714,420 v 0 c 0,0 32.99832,107.00168 0,140 -4.33243,4.33243 -14.04852,4.33243 -18.38095,0 -32.99832,-32.99832 32.99832,-107.00168 0,-140 -4.33243,-4.33243 -14.04852,-4.33243 -18.38095,0 -32.99832,32.99832 32.99832,107.00168 0,140 -4.33243,4.33243 -14.04852,4.33243 -18.38095,0 -32.99832,-32.99832 32.99832,-107.00168 0,-140 -4.33243,-4.33243 -14.04853,-4.33243 -18.38096,0 -32.99832,32.99832 32.99832,107.00168 0,140 -4.33243,4.33243 -14.04852,4.33243 -18.38095,0 -32.99832,-32.99832 32.99832,-107.00168 0,-140 -4.33243,-4.33243 -18.38095,0 -18.38095,0"
       stroke="#a0a7ac"
       fill="none"
       stroke-width="1"
       stroke-linejoin="round"
       stroke-linecap="round"
       vector-effect="non-scaling-stroke"
       id="path19"
       sodipodi:nodetypes="cssssssssssssc" />
    <path
       d="m 110.28571,420 v 0 c 0,0 32.99832,107.00168 0,140 -4.33243,4.33243 -14.048517,4.33243 -18.380948,0 -32.998316,-32.99832 32.998318,-107.00168 0,-140 -4.332432,-4.33243 -14.04852,-4.33243 -18.380952,0 -32.998316,32.99832 32.99832,107.00168 0,140 -4.332432,4.33243 -14.048521,4.33243 -18.380953,0 -32.998316,-32.99832 32.998316,-107.00168 0,-140 -4.332432,-4.33243 -14.04852,-4.33243 -18.380952,0 -32.9983165,32.99832 32.998316,107.00168 0,140 -4.332432,4.33243 -14.048521,4.33243 -18.380953,0 -32.998316,-32.99832 32.998316,-107.00168 0,-140 C 14.04852,415.66757 0,420 0,420"
       stroke="#a0a7ac"
       fill="none"
       stroke-width="1"
       stroke-linejoin="round"
       stroke-linecap="round"
       vector-effect="non-scaling-stroke"
       id="path20"
       sodipodi:nodetypes="cssssssssssssc" />
  </g>
  <g
     id="4color-group-color-187-193-198"
     data-color="#bbc1c6"
     data-name="Color 4">
    <path
       d="m 441.14286,140 v 0 c 0,0 32.99832,107.00168 0,140 -6.49865,6.49865 -21.07278,6.49865 -27.57143,0 -32.99832,-32.99832 32.99832,-107.00168 0,-140 -6.49865,-6.49865 -21.07278,-6.49865 -27.57143,0 -32.99832,32.99832 32.99832,107.00168 0,140 -6.49865,6.49865 -21.07278,6.49865 -27.57143,0 -32.99832,-32.99832 32.99832,-107.00168 0,-140 -6.49865,-6.49865 -27.57143,0 -27.57143,0"
       stroke="#bbc1c6"
       fill="none"
       stroke-width="1"
       stroke-linejoin="round"
       stroke-linecap="round"
       vector-effect="non-scaling-stroke"
       id="path21"
       sodipodi:nodetypes="cssssssssc" />
    <path
       d="m 110.28571,280 v 0 c 0,0 -32.998316,107.00168 0,140 6.49865,6.49865 21.07278,6.49865 27.57143,0 32.99832,-32.99832 -32.99832,-107.00168 0,-140 6.49865,-6.49865 21.07278,-6.49865 27.57143,0 32.99832,32.99832 -32.99832,107.00168 0,140 6.49865,6.49865 21.07278,6.49865 27.57143,0 32.99832,-32.99832 -32.99832,-107.00168 0,-140 6.49865,-6.49865 27.57143,0 27.57143,0"
       stroke="#bbc1c6"
       fill="none"
       stroke-width="1"
       stroke-linejoin="round"
       stroke-linecap="round"
       vector-effect="non-scaling-stroke"
       id="path22"
       sodipodi:nodetypes="cssssssssc" />
    <path
       d="m 220.57143,280 v 0 c 0,0 -32.99832,107.00168 0,140 6.49865,6.49865 21.07278,6.49865 27.57143,0 32.99832,-32.99832 -32.99832,-107.00168 0,-140 6.49865,-6.49865 21.07278,-6.49865 27.57143,0 32.99832,32.99832 -32.99832,107.00168 0,140 6.49865,6.49865 21.07277,6.49865 27.57142,0 32.99832,-32.99832 -32.99832,-107.00168 0,-140 6.49865,-6.49865 27.57143,0 27.57143,0"
       stroke="#bbc1c6"
       fill="none"
       stroke-width="1"
       stroke-linejoin="round"
       stroke-linecap="round"
       vector-effect="non-scaling-stroke"
       id="path23"
       sodipodi:nodetypes="cssssssssc" />
    <path
       d="m 661.71429,280 v 0 c 0,0 -32.99832,107.00168 0,140 6.49865,6.49865 21.07277,6.49865 27.57142,0 32.99832,-32.99832 -32.99832,-107.00168 0,-140 6.49865,-6.49865 21.07278,-6.49865 27.57143,0 32.99832,32.99832 -32.99832,107.00168 0,140 6.49865,6.49865 21.07278,6.49865 27.57143,0 32.99832,-32.99832 -32.99832,-107.00168 0,-140 C 750.92722,273.50135 772,280 772,280"
       stroke="#bbc1c6"
       fill="none"
       stroke-width="1"
       stroke-linejoin="round"
       stroke-linecap="round"
       vector-effect="non-scaling-stroke"
       id="path24"
       sodipodi:nodetypes="cssssssssc" />
    <path
       d="m 661.71429,420 v 0 c 0,0 32.99832,107.00168 0,140 -6.49865,6.49865 -21.07278,6.49865 -27.57143,0 -32.99832,-32.99832 32.99832,-107.00168 0,-140 -6.49865,-6.49865 -21.07278,-6.49865 -27.57143,0 -32.99832,32.99832 32.99832,107.00168 0,140 -6.49865,6.49865 -21.07278,6.49865 -27.57143,0 -32.99832,-32.99832 32.99832,-107.00168 0,-140 -6.49865,-6.49865 -27.57143,0 -27.57143,0"
       stroke="#bbc1c6"
       fill="none"
       stroke-width="1"
       stroke-linejoin="round"
       stroke-linecap="round"
       vector-effect="non-scaling-stroke"
       id="path25"
       sodipodi:nodetypes="cssssssssc" />
    <path
       d="m 551.42857,420 v 0 c 0,0 32.99832,107.00168 0,140 -6.49865,6.49865 -21.07278,6.49865 -27.57143,0 -32.99832,-32.99832 32.99832,-107.00168 0,-140 -6.49865,-6.49865 -21.07278,-6.49865 -27.57143,0 -32.99832,32.99832 32.99832,107.00168 0,140 -6.49865,6.49865 -21.07277,6.49865 -27.57142,0 -32.99832,-32.99832 32.99832,-107.00168 0,-140 -6.49865,-6.49865 -27.57143,0 -27.57143,0"
       stroke="#bbc1c6"
       fill="none"
       stroke-width="1"
       stroke-linejoin="round"
       stroke-linecap="round"
       vector-effect="non-scaling-stroke"
       id="path26"
       sodipodi:nodetypes="cssssssssc" />
    <path
       d="m 220.57143,420 v 0 c 0,0 32.99832,107.00168 0,140 -6.49865,6.49865 -21.07278,6.49865 -27.57143,0 -32.99832,-32.99832 32.99832,-107.00168 0,-140 -6.49865,-6.49865 -21.07278,-6.49865 -27.57143,0 -32.99832,32.99832 32.99832,107.00168 0,140 -6.49865,6.49865 -21.07278,6.49865 -27.57143,0 -32.99832,-32.99832 32.99832,-107.00168 0,-140 -6.49865,-6.49865 -27.57143,0 -27.57143,0"
       stroke="#bbc1c6"
       fill="none"
       stroke-width="1"
       stroke-linejoin="round"
       stroke-linecap="round"
       vector-effect="non-scaling-stroke"
       id="path27"
       sodipodi:nodetypes="cssssssssc" />
  </g>
  <g
     id="5color-group-color-229-231-236"
     data-color="#e5e7ec"
     data-name="Color 5">
    <path
       d="m 441.14286,420 v 0 c 0,0 32.99832,107.00168 0,140 -12.9973,12.9973 -42.14556,12.9973 -55.14286,0 -32.99832,-32.99832 32.99832,-107.00168 0,-140 -12.9973,-12.9973 -55.14286,0 -55.14286,0"
       stroke="#e5e7ec"
       fill="none"
       stroke-width="1"
       stroke-linejoin="round"
       stroke-linecap="round"
       vector-effect="non-scaling-stroke"
       id="path28"
       sodipodi:nodetypes="cssssc" />
  </g>
</svg>
