<svg width="149 mm" height="209 mm" viewBox="0 0 560 784" xmlns="http://www.w3.org/2000/svg" shape-rendering="geometricPrecision" style="stroke-linejoin: round; stroke-linecap: round;">
  <g id="1color-group-monochrome" data-color="#000000" data-name="Monochrome">
<path d="M 0 0 L 0 124.13333333333331 L 35 0 L 35 124.13333333333331 L 70 0 L 70 124.13333333333331 L 105 0 L 105 124.13333333333331 L 140 0 L 140 124.13333333333331 L 175 0 L 175 124.13333333333331 L 210 0 L 210 124.13333333333331 L 227.5 124.13333333333331 L 227.5 0 L 245 0 L 245 124.13333333333331 L 262.5 124.13333333333331 L 262.5 0 L 280 0 L 280 124.13333333333331 L 297.5 124.13333333333331 L 297.5 0 L 315 0 L 315 124.13333333333331 L 332.5 124.13333333333331 L 332.5 0 L 350 0 L 350 124.13333333333331 L 385 0 L 385 124.13333333333331 L 420 0 L 420 124.13333333333331 L 455 0 L 455 124.13333333333331 L 490 0 L 490 124.13333333333331 L 525 0 L 525 124.13333333333331 L 560 130.66666666666666 L 560 254.79999999999995 L 525 130.66666666666666 L 525 254.79999999999995 L 490 130.66666666666666 L 490 254.79999999999995 L 455 130.66666666666666 L 455 254.79999999999995 L 437.5 254.79999999999995 L 437.5 130.66666666666666 L 420 130.66666666666666 L 420 254.79999999999995 L 402.5 254.79999999999995 L 402.5 130.66666666666666 L 385 130.66666666666666 L 385 254.79999999999995 L 367.5 254.79999999999995 L 367.5 130.66666666666666 L 350 130.66666666666666 L 350 254.79999999999995 L 332.5 254.79999999999995 L 332.5 130.66666666666666 L 315 130.66666666666666 L 315 254.79999999999995 L 280 130.66666666666666 L 280 254.79999999999995 L 262.5 254.79999999999995 L 262.5 130.66666666666666 L 245 130.66666666666666 L 245 254.79999999999995 L 210 130.66666666666666 L 210 254.79999999999995 L 192.5 254.79999999999995 L 192.5 130.66666666666666 L 175 130.66666666666666 L 175 254.79999999999995 L 157.5 254.79999999999995 L 157.5 130.66666666666666 L 140 130.66666666666666 L 140 254.79999999999995 L 122.5 254.79999999999995 L 122.5 130.66666666666666 L 105 130.66666666666666 L 105 254.79999999999995 L 87.5 254.79999999999995 L 87.5 130.66666666666666 L 70 130.66666666666666 L 70 254.79999999999995 L 35 130.66666666666666 L 35 254.79999999999995 L 0 261.3333333333333 L 0 385.46666666666664 L 35 261.3333333333333 L 35 385.46666666666664 L 70 261.3333333333333 L 70 385.46666666666664 L 140 261.3333333333333 L 140 385.46666666666664 L 175 261.3333333333333 L 175 385.46666666666664 L 245 261.3333333333333 L 245 385.46666666666664 L 280 261.3333333333333 L 280 385.46666666666664 L 315 261.3333333333333 L 315 385.46666666666664 L 350 261.3333333333333 L 350 385.46666666666664 L 385 261.3333333333333 L 385 385.46666666666664 L 420 261.3333333333333 L 420 385.46666666666664 L 455 261.3333333333333 L 455 385.46666666666664 L 490 261.3333333333333 L 490 385.46666666666664 L 525 261.3333333333333 L 525 385.46666666666664 L 560 392 L 560 516.1333333333333 L 525 392 L 525 516.1333333333333 L 490 392 L 490 516.1333333333333 L 455 392 L 455 516.1333333333333 L 420 392 L 420 516.1333333333333 L 385 392 L 385 516.1333333333333 L 350 392 L 350 516.1333333333333 L 315 392 L 315 516.1333333333333 L 280 392 L 280 516.1333333333333 L 245 392 L 245 516.1333333333333 L 140 392 L 140 516.1333333333333 L 105 392 L 105 516.1333333333333 L 70 392 L 70 516.1333333333333 L 35 392 L 35 516.1333333333333 L 0 522.6666666666666 L 0 646.8 L 35 522.6666666666666 L 35 646.8 L 70 522.6666666666666 L 70 646.8 L 105 522.6666666666666 L 105 646.8 L 140 522.6666666666666 L 140 646.8 L 175 522.6666666666666 L 175 646.8 L 210 522.6666666666666 L 210 646.8 L 227.5 646.8 L 227.5 522.6666666666666 L 280 522.6666666666666 L 280 646.8 L 315 522.6666666666666 L 315 646.8 L 350 522.6666666666666 L 350 646.8 L 367.5 646.8 L 367.5 522.6666666666666 L 385 522.6666666666666 L 385 646.8 L 402.5 646.8 L 402.5 522.6666666666666 L 420 522.6666666666666 L 420 646.8 L 437.5 646.8 L 437.5 522.6666666666666 L 455 522.6666666666666 L 455 646.8 L 490 522.6666666666666 L 490 646.8 L 525 522.6666666666666 L 525 646.8 L 560 653.3333333333333 L 560 777.4666666666666 L 542.5 777.4666666666666 L 542.5 653.3333333333333 L 525 653.3333333333333 L 525 777.4666666666666 L 507.5 777.4666666666666 L 507.5 653.3333333333333 L 490 653.3333333333333 L 490 777.4666666666666 L 472.5 777.4666666666666 L 472.5 653.3333333333333 L 455 653.3333333333333 L 455 777.4666666666666 L 437.5 777.4666666666666 L 437.5 653.3333333333333 L 420 653.3333333333333 L 420 777.4666666666666 L 402.5 777.4666666666666 L 402.5 653.3333333333333 L 385 653.3333333333333 L 385 777.4666666666666 L 367.5 777.4666666666666 L 367.5 653.3333333333333 L 350 653.3333333333333 L 350 777.4666666666666 L 332.5 777.4666666666666 L 332.5 653.3333333333333 L 315 653.3333333333333 L 315 777.4666666666666 L 297.5 777.4666666666666 L 297.5 653.3333333333333 L 280 653.3333333333333 L 280 777.4666666666666 L 262.5 777.4666666666666 L 262.5 653.3333333333333 L 245 653.3333333333333 L 245 777.4666666666666 L 227.5 777.4666666666666 L 227.5 653.3333333333333 L 210 653.3333333333333 L 210 777.4666666666666 L 192.5 777.4666666666666 L 192.5 653.3333333333333 L 175 653.3333333333333 L 175 777.4666666666666 L 157.5 777.4666666666666 L 157.5 653.3333333333333 L 140 653.3333333333333 L 140 777.4666666666666 L 122.5 777.4666666666666 L 122.5 653.3333333333333 L 105 653.3333333333333 L 105 777.4666666666666 L 70 653.3333333333333 L 70 777.4666666666666 L 35 777.4666666666666" stroke="#000000" fill="none" stroke-width="1" stroke-linejoin="round" stroke-linecap="round" vector-effect="non-scaling-stroke" />
</g>
</svg>