<svg width="223 mm" height="149 mm" viewBox="0 0 840 560" xmlns="http://www.w3.org/2000/svg" shape-rendering="geometricPrecision" style="stroke-linejoin: round; stroke-linecap: round;">
  <g id="1color-group-monochrome" data-color="#000000" data-name="Monochrome">
<path d="M 0 0 L 0 243.6 L 52.5 243.6 L 52.5 0 L 105 0 L 105 243.6 L 157.5 243.6 L 157.5 0 L 210 0 L 210 243.6 L 262.5 243.6 L 262.5 0 L 315 0 L 315 243.6 L 367.5 243.6 L 367.5 0 L 420 0 L 420 243.6 L 490 243.6 L 490 0 L 560 0 L 560 243.6 L 630 243.6 L 630 0 L 700 0 L 700 243.6 L 770 243.6 L 770 0 L 840 0" stroke="#000000" fill="none" stroke-width="1" stroke-linejoin="round" stroke-linecap="round" vector-effect="non-scaling-stroke" />
<path d="M 840 280 L 840 523.6 L 787.5 523.6 L 787.5 280 L 735 280 L 735 523.6 L 682.5 523.6 L 682.5 280 L 630 280 L 630 523.6 L 577.5 523.6 L 577.5 280 L 525 280 L 525 523.6 L 472.5 523.6 L 472.5 280 L 420 280 L 420 523.6 L 350 523.6 L 350 280 L 280 280 L 280 523.6 L 210 523.6 L 210 280 L 140 280 L 140 523.6 L 70 523.6 L 70 280 L 0 280" stroke="#000000" fill="none" stroke-width="1" stroke-linejoin="round" stroke-linecap="round" vector-effect="non-scaling-stroke" />
</g>
</svg>