<svg width="211 mm" height="149 mm" viewBox="0 0 794 560" xmlns="http://www.w3.org/2000/svg" shape-rendering="geometricPrecision" style="stroke-linejoin: round; stroke-linecap: round;">
  <g id="1color-group-monochrome" data-color="#000000" data-name="Monochrome">
<path d="M 0 0 C 13.233333333333334,32.8 6.616666666666667,68 0,80 C 5.293333333333334,100 27.790000000000003,100 33.083333333333336,80 C 19.85,47.2 26.46666666666667,12 33.083333333333336,0 C 38.37666666666667,-20 60.873333333333335,-20 66.16666666666667,0 C 79.4,32.8 72.78333333333333,68 66.16666666666667,80 C 71.46000000000001,100 93.95666666666666,100 99.25,80 C 86.01666666666667,47.2 92.63333333333333,12 99.25,0 C 104.54333333333334,-20 127.04,-20 132.33333333333334,0 C 145.56666666666666,32.8 138.95000000000002,68 132.33333333333334,80 C 137.62666666666667,100 160.12333333333336,100 165.41666666666669,80 C 152.18333333333334,47.2 158.8,12 165.41666666666669,0 C 79.4,0 138.95,0 198.5,0 C 211.73333333333335,32.8 205.11666666666667,68 198.5,80 C 203.79333333333332,100 226.29000000000002,100 231.58333333333334,80 C 218.35000000000002,47.2 224.96666666666667,12 231.58333333333334,0 C 236.87666666666667,-20 259.37333333333333,-20 264.6666666666667,0 C 277.90000000000003,32.8 271.28333333333336,68 264.6666666666667,80 C 269.96000000000004,100 292.45666666666665,100 297.75,80 C 284.51666666666665,47.2 291.1333333333333,12 297.75,0 C 303.04333333333335,-20 325.54,-20 330.83333333333337,0 C 344.0666666666667,32.8 337.45000000000005,68 330.83333333333337,80 C 336.1266666666667,100 358.62333333333333,100 363.9166666666667,80 C 350.68333333333334,47.2 357.3,12 363.9166666666667,0 C 277.9,0 337.45,0 397,0 C 410.23333333333335,32.8 403.6166666666667,68 397,80 C 402.29333333333335,100 424.78999999999996,100 430.0833333333333,80 C 416.84999999999997,47.2 423.46666666666664,12 430.0833333333333,0 C 435.37666666666667,-20 457.87333333333333,-20 463.1666666666667,0 C 476.40000000000003,32.8 469.78333333333336,68 463.1666666666667,80 C 468.46000000000004,100 490.95666666666665,100 496.25,80 C 483.01666666666665,47.2 489.6333333333333,12 496.25,0 C 501.54333333333335,-20 524.0400000000001,-20 529.3333333333334,0 C 542.5666666666667,32.8 535.95,68 529.3333333333334,80 C 534.6266666666667,100 557.1233333333334,100 562.4166666666667,80 C 549.1833333333334,47.2 555.8000000000001,12 562.4166666666667,0 C 476.4,0 535.95,0 595.5,0 C 608.7333333333333,32.8 602.1166666666667,68 595.5,80 C 600.7933333333333,100 623.2900000000001,100 628.5833333333334,80 C 615.35,47.2 621.9666666666667,12 628.5833333333334,0 C 633.8766666666667,-20 656.3733333333333,-20 661.6666666666666,0 C 674.9,32.8 668.2833333333333,68 661.6666666666666,80 C 666.9599999999999,100 689.4566666666667,100 694.75,80 C 681.5166666666667,47.2 688.1333333333333,12 694.75,0 C 700.0433333333333,-20 722.5400000000001,-20 727.8333333333334,0 C 741.0666666666667,32.8 734.45,68 727.8333333333334,80 C 733.1266666666667,100 755.6233333333334,100 760.9166666666667,80 C 747.6833333333334,47.2 754.3000000000001,12 760.9166666666667,0 " stroke="#000000" fill="none" stroke-width="1" stroke-linejoin="round" stroke-linecap="round" vector-effect="non-scaling-stroke" />
<path d="M 794 80 C 780.7666666666667,112.8 787.3833333333333,148 794,160 C 788.7066666666667,180 766.2099999999999,180 760.9166666666666,160 C 774.15,127.2 767.5333333333333,92 760.9166666666666,80 C 755.6233333333333,60 733.1266666666667,60 727.8333333333334,80 C 714.6,112.8 721.2166666666667,148 727.8333333333334,160 C 722.5400000000001,180 700.0433333333333,180 694.75,160 C 707.9833333333333,127.2 701.3666666666667,92 694.75,80 C 689.4566666666667,60 666.9599999999999,60 661.6666666666666,80 C 648.4333333333333,112.8 655.05,148 661.6666666666666,160 C 656.3733333333333,180 633.8766666666666,180 628.5833333333333,160 C 641.8166666666666,127.2 635.1999999999999,92 628.5833333333333,80 C 714.6,80 655.05,80 595.5,80 C 582.2666666666667,112.8 588.8833333333333,148 595.5,160 C 590.2066666666667,180 567.7099999999999,180 562.4166666666666,160 C 575.65,127.2 569.0333333333333,92 562.4166666666666,80 C 557.1233333333333,60 534.6266666666667,60 529.3333333333334,80 C 516.1,112.8 522.7166666666667,148 529.3333333333334,160 C 524.0400000000001,180 501.54333333333335,180 496.25,160 C 509.48333333333335,127.2 502.8666666666667,92 496.25,80 C 490.95666666666665,60 468.46,60 463.16666666666663,80 C 449.9333333333333,112.8 456.54999999999995,148 463.16666666666663,160 C 457.8733333333333,180 435.37666666666667,180 430.0833333333333,160 C 443.31666666666666,127.2 436.7,92 430.0833333333333,80 C 516.1,80 456.55,80 397,80 C 383.76666666666665,112.8 390.3833333333333,148 397,160 C 391.70666666666665,180 369.21000000000004,180 363.9166666666667,160 C 377.15000000000003,127.2 370.53333333333336,92 363.9166666666667,80 C 358.62333333333333,60 336.12666666666667,60 330.8333333333333,80 C 317.59999999999997,112.8 324.21666666666664,148 330.8333333333333,160 C 325.53999999999996,180 303.04333333333335,180 297.75,160 C 310.98333333333335,127.2 304.3666666666667,92 297.75,80 C 292.45666666666665,60 269.96,60 264.66666666666663,80 C 251.43333333333328,112.8 258.04999999999995,148 264.66666666666663,160 C 259.3733333333333,180 236.87666666666664,180 231.58333333333331,160 C 244.81666666666666,127.2 238.2,92 231.58333333333331,80 C 317.6,80 258.05,80 198.5,80 C 185.26666666666665,112.8 191.88333333333333,148 198.5,160 C 193.20666666666668,180 170.70999999999998,180 165.41666666666666,160 C 178.64999999999998,127.2 172.03333333333333,92 165.41666666666666,80 C 160.12333333333333,60 137.62666666666664,60 132.33333333333331,80 C 119.09999999999998,112.8 125.71666666666664,148 132.33333333333331,160 C 127.03999999999998,180 104.54333333333334,180 99.25,160 C 112.48333333333333,127.2 105.86666666666667,92 99.25,80 C 93.95666666666666,60 71.46,60 66.16666666666666,80 C 52.93333333333332,112.8 59.54999999999999,148 66.16666666666666,160 C 60.87333333333332,180 38.37666666666665,180 33.083333333333314,160 C 46.31666666666665,127.2 39.69999999999998,92 33.083333333333314,80 " stroke="#000000" fill="none" stroke-width="1" stroke-linejoin="round" stroke-linecap="round" vector-effect="non-scaling-stroke" />
<path d="M 0 160 C 13.233333333333334,192.8 6.616666666666667,228 0,240 C 5.293333333333334,260 27.790000000000003,260 33.083333333333336,240 C 19.85,207.2 26.46666666666667,172 33.083333333333336,160 C 38.37666666666667,140 60.873333333333335,140 66.16666666666667,160 C 79.4,192.8 72.78333333333333,228 66.16666666666667,240 C 71.46000000000001,260 93.95666666666666,260 99.25,240 C 86.01666666666667,207.2 92.63333333333333,172 99.25,160 C 104.54333333333334,140 127.04,140 132.33333333333334,160 C 145.56666666666666,192.8 138.95000000000002,228 132.33333333333334,240 C 137.62666666666667,260 160.12333333333336,260 165.41666666666669,240 C 152.18333333333334,207.2 158.8,172 165.41666666666669,160 C 79.4,160 138.95,160 198.5,160 C 211.73333333333335,192.8 205.11666666666667,228 198.5,240 C 203.79333333333332,260 226.29000000000002,260 231.58333333333334,240 C 218.35000000000002,207.2 224.96666666666667,172 231.58333333333334,160 C 236.87666666666667,140 259.37333333333333,140 264.6666666666667,160 C 277.90000000000003,192.8 271.28333333333336,228 264.6666666666667,240 C 269.96000000000004,260 292.45666666666665,260 297.75,240 C 284.51666666666665,207.2 291.1333333333333,172 297.75,160 C 303.04333333333335,140 325.54,140 330.83333333333337,160 C 344.0666666666667,192.8 337.45000000000005,228 330.83333333333337,240 C 336.1266666666667,260 358.62333333333333,260 363.9166666666667,240 C 350.68333333333334,207.2 357.3,172 363.9166666666667,160 C 277.9,160 337.45,160 397,160 C 410.23333333333335,192.8 403.6166666666667,228 397,240 C 402.29333333333335,260 424.78999999999996,260 430.0833333333333,240 C 416.84999999999997,207.2 423.46666666666664,172 430.0833333333333,160 C 435.37666666666667,140 457.87333333333333,140 463.1666666666667,160 C 476.40000000000003,192.8 469.78333333333336,228 463.1666666666667,240 C 468.46000000000004,260 490.95666666666665,260 496.25,240 C 483.01666666666665,207.2 489.6333333333333,172 496.25,160 C 501.54333333333335,140 524.0400000000001,140 529.3333333333334,160 C 542.5666666666667,192.8 535.95,228 529.3333333333334,240 C 534.6266666666667,260 557.1233333333334,260 562.4166666666667,240 C 549.1833333333334,207.2 555.8000000000001,172 562.4166666666667,160 C 476.4,160 535.95,160 595.5,160 C 608.7333333333333,192.8 602.1166666666667,228 595.5,240 C 600.7933333333333,260 623.2900000000001,260 628.5833333333334,240 C 615.35,207.2 621.9666666666667,172 628.5833333333334,160 C 633.8766666666667,140 656.3733333333333,140 661.6666666666666,160 C 674.9,192.8 668.2833333333333,228 661.6666666666666,240 C 666.9599999999999,260 689.4566666666667,260 694.75,240 C 681.5166666666667,207.2 688.1333333333333,172 694.75,160 C 700.0433333333333,140 722.5400000000001,140 727.8333333333334,160 C 741.0666666666667,192.8 734.45,228 727.8333333333334,240 C 733.1266666666667,260 755.6233333333334,260 760.9166666666667,240 C 747.6833333333334,207.2 754.3000000000001,172 760.9166666666667,160 " stroke="#000000" fill="none" stroke-width="1" stroke-linejoin="round" stroke-linecap="round" vector-effect="non-scaling-stroke" />
<path d="M 794 240 C 780.7666666666667,272.8 787.3833333333333,308 794,320 C 788.7066666666667,340 766.2099999999999,340 760.9166666666666,320 C 774.15,287.2 767.5333333333333,252 760.9166666666666,240 C 755.6233333333333,220 733.1266666666667,220 727.8333333333334,240 C 714.6,272.8 721.2166666666667,308 727.8333333333334,320 C 722.5400000000001,340 700.0433333333333,340 694.75,320 C 707.9833333333333,287.2 701.3666666666667,252 694.75,240 C 689.4566666666667,220 666.9599999999999,220 661.6666666666666,240 C 648.4333333333333,272.8 655.05,308 661.6666666666666,320 C 656.3733333333333,340 633.8766666666666,340 628.5833333333333,320 C 641.8166666666666,287.2 635.1999999999999,252 628.5833333333333,240 C 714.6,240 655.05,240 595.5,240 C 582.2666666666667,272.8 588.8833333333333,308 595.5,320 C 590.2066666666667,340 567.7099999999999,340 562.4166666666666,320 C 575.65,287.2 569.0333333333333,252 562.4166666666666,240 C 557.1233333333333,220 534.6266666666667,220 529.3333333333334,240 C 516.1,272.8 522.7166666666667,308 529.3333333333334,320 C 524.0400000000001,340 501.54333333333335,340 496.25,320 C 509.48333333333335,287.2 502.8666666666667,252 496.25,240 C 490.95666666666665,220 468.46,220 463.16666666666663,240 C 449.9333333333333,272.8 456.54999999999995,308 463.16666666666663,320 C 457.8733333333333,340 435.37666666666667,340 430.0833333333333,320 C 443.31666666666666,287.2 436.7,252 430.0833333333333,240 C 516.1,240 456.55,240 397,240 C 383.76666666666665,272.8 390.3833333333333,308 397,320 C 391.70666666666665,340 369.21000000000004,340 363.9166666666667,320 C 377.15000000000003,287.2 370.53333333333336,252 363.9166666666667,240 C 358.62333333333333,220 336.12666666666667,220 330.8333333333333,240 C 317.59999999999997,272.8 324.21666666666664,308 330.8333333333333,320 C 325.53999999999996,340 303.04333333333335,340 297.75,320 C 310.98333333333335,287.2 304.3666666666667,252 297.75,240 C 292.45666666666665,220 269.96,220 264.66666666666663,240 C 251.43333333333328,272.8 258.04999999999995,308 264.66666666666663,320 C 259.3733333333333,340 236.87666666666664,340 231.58333333333331,320 C 244.81666666666666,287.2 238.2,252 231.58333333333331,240 C 317.6,240 258.05,240 198.5,240 C 185.26666666666665,272.8 191.88333333333333,308 198.5,320 C 193.20666666666668,340 170.70999999999998,340 165.41666666666666,320 C 178.64999999999998,287.2 172.03333333333333,252 165.41666666666666,240 C 160.12333333333333,220 137.62666666666664,220 132.33333333333331,240 C 119.09999999999998,272.8 125.71666666666664,308 132.33333333333331,320 C 127.03999999999998,340 104.54333333333334,340 99.25,320 C 112.48333333333333,287.2 105.86666666666667,252 99.25,240 C 93.95666666666666,220 71.46,220 66.16666666666666,240 C 52.93333333333332,272.8 59.54999999999999,308 66.16666666666666,320 C 60.87333333333332,340 38.37666666666665,340 33.083333333333314,320 C 46.31666666666665,287.2 39.69999999999998,252 33.083333333333314,240 " stroke="#000000" fill="none" stroke-width="1" stroke-linejoin="round" stroke-linecap="round" vector-effect="non-scaling-stroke" />
<path d="M 0 320 C 13.233333333333334,352.8 6.616666666666667,388 0,400 C 5.293333333333334,420 27.790000000000003,420 33.083333333333336,400 C 19.85,367.2 26.46666666666667,332 33.083333333333336,320 C 38.37666666666667,300 60.873333333333335,300 66.16666666666667,320 C 79.4,352.8 72.78333333333333,388 66.16666666666667,400 C 71.46000000000001,420 93.95666666666666,420 99.25,400 C 86.01666666666667,367.2 92.63333333333333,332 99.25,320 C 104.54333333333334,300 127.04,300 132.33333333333334,320 C 145.56666666666666,352.8 138.95000000000002,388 132.33333333333334,400 C 137.62666666666667,420 160.12333333333336,420 165.41666666666669,400 C 152.18333333333334,367.2 158.8,332 165.41666666666669,320 C 79.4,320 138.95,320 198.5,320 C 211.73333333333335,352.8 205.11666666666667,388 198.5,400 C 203.79333333333332,420 226.29000000000002,420 231.58333333333334,400 C 218.35000000000002,367.2 224.96666666666667,332 231.58333333333334,320 C 236.87666666666667,300 259.37333333333333,300 264.6666666666667,320 C 277.90000000000003,352.8 271.28333333333336,388 264.6666666666667,400 C 269.96000000000004,420 292.45666666666665,420 297.75,400 C 284.51666666666665,367.2 291.1333333333333,332 297.75,320 C 303.04333333333335,300 325.54,300 330.83333333333337,320 C 344.0666666666667,352.8 337.45000000000005,388 330.83333333333337,400 C 336.1266666666667,420 358.62333333333333,420 363.9166666666667,400 C 350.68333333333334,367.2 357.3,332 363.9166666666667,320 C 277.9,320 337.45,320 397,320 C 410.23333333333335,352.8 403.6166666666667,388 397,400 C 402.29333333333335,420 424.78999999999996,420 430.0833333333333,400 C 416.84999999999997,367.2 423.46666666666664,332 430.0833333333333,320 C 435.37666666666667,300 457.87333333333333,300 463.1666666666667,320 C 476.40000000000003,352.8 469.78333333333336,388 463.1666666666667,400 C 468.46000000000004,420 490.95666666666665,420 496.25,400 C 483.01666666666665,367.2 489.6333333333333,332 496.25,320 C 501.54333333333335,300 524.0400000000001,300 529.3333333333334,320 C 542.5666666666667,352.8 535.95,388 529.3333333333334,400 C 534.6266666666667,420 557.1233333333334,420 562.4166666666667,400 C 549.1833333333334,367.2 555.8000000000001,332 562.4166666666667,320 C 476.4,320 535.95,320 595.5,320 C 608.7333333333333,352.8 602.1166666666667,388 595.5,400 C 600.7933333333333,420 623.2900000000001,420 628.5833333333334,400 C 615.35,367.2 621.9666666666667,332 628.5833333333334,320 C 633.8766666666667,300 656.3733333333333,300 661.6666666666666,320 C 674.9,352.8 668.2833333333333,388 661.6666666666666,400 C 666.9599999999999,420 689.4566666666667,420 694.75,400 C 681.5166666666667,367.2 688.1333333333333,332 694.75,320 C 700.0433333333333,300 722.5400000000001,300 727.8333333333334,320 C 741.0666666666667,352.8 734.45,388 727.8333333333334,400 C 733.1266666666667,420 755.6233333333334,420 760.9166666666667,400 C 747.6833333333334,367.2 754.3000000000001,332 760.9166666666667,320 " stroke="#000000" fill="none" stroke-width="1" stroke-linejoin="round" stroke-linecap="round" vector-effect="non-scaling-stroke" />
<path d="M 794 400 C 780.7666666666667,432.8 787.3833333333333,468 794,480 C 788.7066666666667,500 766.2099999999999,500 760.9166666666666,480 C 774.15,447.2 767.5333333333333,412 760.9166666666666,400 C 755.6233333333333,380 733.1266666666667,380 727.8333333333334,400 C 714.6,432.8 721.2166666666667,468 727.8333333333334,480 C 722.5400000000001,500 700.0433333333333,500 694.75,480 C 707.9833333333333,447.2 701.3666666666667,412 694.75,400 C 689.4566666666667,380 666.9599999999999,380 661.6666666666666,400 C 648.4333333333333,432.8 655.05,468 661.6666666666666,480 C 656.3733333333333,500 633.8766666666666,500 628.5833333333333,480 C 641.8166666666666,447.2 635.1999999999999,412 628.5833333333333,400 C 714.6,400 655.05,400 595.5,400 C 582.2666666666667,432.8 588.8833333333333,468 595.5,480 C 590.2066666666667,500 567.7099999999999,500 562.4166666666666,480 C 575.65,447.2 569.0333333333333,412 562.4166666666666,400 C 557.1233333333333,380 534.6266666666667,380 529.3333333333334,400 C 516.1,432.8 522.7166666666667,468 529.3333333333334,480 C 524.0400000000001,500 501.54333333333335,500 496.25,480 C 509.48333333333335,447.2 502.8666666666667,412 496.25,400 C 490.95666666666665,380 468.46,380 463.16666666666663,400 C 449.9333333333333,432.8 456.54999999999995,468 463.16666666666663,480 C 457.8733333333333,500 435.37666666666667,500 430.0833333333333,480 C 443.31666666666666,447.2 436.7,412 430.0833333333333,400 C 516.1,400 456.55,400 397,400 C 383.76666666666665,432.8 390.3833333333333,468 397,480 C 391.70666666666665,500 369.21000000000004,500 363.9166666666667,480 C 377.15000000000003,447.2 370.53333333333336,412 363.9166666666667,400 C 358.62333333333333,380 336.12666666666667,380 330.8333333333333,400 C 317.59999999999997,432.8 324.21666666666664,468 330.8333333333333,480 C 325.53999999999996,500 303.04333333333335,500 297.75,480 C 310.98333333333335,447.2 304.3666666666667,412 297.75,400 C 292.45666666666665,380 269.96,380 264.66666666666663,400 C 251.43333333333328,432.8 258.04999999999995,468 264.66666666666663,480 C 259.3733333333333,500 236.87666666666664,500 231.58333333333331,480 C 244.81666666666666,447.2 238.2,412 231.58333333333331,400 C 317.6,400 258.05,400 198.5,400 C 185.26666666666665,432.8 191.88333333333333,468 198.5,480 C 193.20666666666668,500 170.70999999999998,500 165.41666666666666,480 C 178.64999999999998,447.2 172.03333333333333,412 165.41666666666666,400 C 160.12333333333333,380 137.62666666666664,380 132.33333333333331,400 C 119.09999999999998,432.8 125.71666666666664,468 132.33333333333331,480 C 127.03999999999998,500 104.54333333333334,500 99.25,480 C 112.48333333333333,447.2 105.86666666666667,412 99.25,400 C 93.95666666666666,380 71.46,380 66.16666666666666,400 C 52.93333333333332,432.8 59.54999999999999,468 66.16666666666666,480 C 60.87333333333332,500 38.37666666666665,500 33.083333333333314,480 C 46.31666666666665,447.2 39.69999999999998,412 33.083333333333314,400 " stroke="#000000" fill="none" stroke-width="1" stroke-linejoin="round" stroke-linecap="round" vector-effect="non-scaling-stroke" />
<path d="M 0 480 C 13.233333333333334,512.8 6.616666666666667,548 0,560 C 5.293333333333334,580 27.790000000000003,580 33.083333333333336,560 C 19.85,527.2 26.46666666666667,492 33.083333333333336,480 C 38.37666666666667,460 60.873333333333335,460 66.16666666666667,480 C 79.4,512.8 72.78333333333333,548 66.16666666666667,560 C 71.46000000000001,580 93.95666666666666,580 99.25,560 C 86.01666666666667,527.2 92.63333333333333,492 99.25,480 C 104.54333333333334,460 127.04,460 132.33333333333334,480 C 145.56666666666666,512.8 138.95000000000002,548 132.33333333333334,560 C 137.62666666666667,580 160.12333333333336,580 165.41666666666669,560 C 152.18333333333334,527.2 158.8,492 165.41666666666669,480 C 79.4,480 138.95,480 198.5,480 C 211.73333333333335,512.8 205.11666666666667,548 198.5,560 C 203.79333333333332,580 226.29000000000002,580 231.58333333333334,560 C 218.35000000000002,527.2 224.96666666666667,492 231.58333333333334,480 C 236.87666666666667,460 259.37333333333333,460 264.6666666666667,480 C 277.90000000000003,512.8 271.28333333333336,548 264.6666666666667,560 C 269.96000000000004,580 292.45666666666665,580 297.75,560 C 284.51666666666665,527.2 291.1333333333333,492 297.75,480 C 303.04333333333335,460 325.54,460 330.83333333333337,480 C 344.0666666666667,512.8 337.45000000000005,548 330.83333333333337,560 C 336.1266666666667,580 358.62333333333333,580 363.9166666666667,560 C 350.68333333333334,527.2 357.3,492 363.9166666666667,480 C 277.9,480 337.45,480 397,480 C 410.23333333333335,512.8 403.6166666666667,548 397,560 C 402.29333333333335,580 424.78999999999996,580 430.0833333333333,560 C 416.84999999999997,527.2 423.46666666666664,492 430.0833333333333,480 C 435.37666666666667,460 457.87333333333333,460 463.1666666666667,480 C 476.40000000000003,512.8 469.78333333333336,548 463.1666666666667,560 C 468.46000000000004,580 490.95666666666665,580 496.25,560 C 483.01666666666665,527.2 489.6333333333333,492 496.25,480 C 501.54333333333335,460 524.0400000000001,460 529.3333333333334,480 C 542.5666666666667,512.8 535.95,548 529.3333333333334,560 C 534.6266666666667,580 557.1233333333334,580 562.4166666666667,560 C 549.1833333333334,527.2 555.8000000000001,492 562.4166666666667,480 C 476.4,480 535.95,480 595.5,480 C 608.7333333333333,512.8 602.1166666666667,548 595.5,560 C 600.7933333333333,580 623.2900000000001,580 628.5833333333334,560 C 615.35,527.2 621.9666666666667,492 628.5833333333334,480 C 633.8766666666667,460 656.3733333333333,460 661.6666666666666,480 C 674.9,512.8 668.2833333333333,548 661.6666666666666,560 C 666.9599999999999,580 689.4566666666667,580 694.75,560 C 681.5166666666667,527.2 688.1333333333333,492 694.75,480 C 700.0433333333333,460 722.5400000000001,460 727.8333333333334,480 C 741.0666666666667,512.8 734.45,548 727.8333333333334,560 C 733.1266666666667,580 755.6233333333334,580 760.9166666666667,560 C 747.6833333333334,527.2 754.3000000000001,492 760.9166666666667,480 " stroke="#000000" fill="none" stroke-width="1" stroke-linejoin="round" stroke-linecap="round" vector-effect="non-scaling-stroke" />
</g>
</svg>