<svg width="223 mm" height="149 mm" viewBox="0 0 840 560" xmlns="http://www.w3.org/2000/svg" shape-rendering="geometricPrecision" style="stroke-linejoin: round; stroke-linecap: round;">
  <g id="1color-group-monochrome" data-color="#000000" data-name="Monochrome">
<path d="M 0 0 C -8.4,30.240000000000002 -4.2,42.56 0,56 C 2.1,71.12 18.9,71.12 21,56 C 29.4,25.759999999999998 25.2,13.439999999999998 21,0 C 23.1,-15.120000000000001 39.9,-15.120000000000001 42,0 C 33.6,30.240000000000002 37.8,42.56 42,56 C 44.1,71.12 60.9,71.12 63,56 C 71.4,25.759999999999998 67.2,13.439999999999998 63,0 " stroke="#000000" fill="none" stroke-width="1" stroke-linejoin="round" stroke-linecap="round" vector-effect="non-scaling-stroke" />
<path d="M 84 0 C 75.6,30.240000000000002 79.8,42.56 84,56 C 86.1,71.12 102.9,71.12 105,56 C 113.4,25.759999999999998 109.2,13.439999999999998 105,0 C 107.1,-15.120000000000001 123.9,-15.120000000000001 126,0 C 117.6,30.240000000000002 121.8,42.56 126,56 C 128.1,71.12 144.9,71.12 147,56 C 155.4,25.759999999999998 151.2,13.439999999999998 147,0 " stroke="#000000" fill="none" stroke-width="1" stroke-linejoin="round" stroke-linecap="round" vector-effect="non-scaling-stroke" />
<path d="M 168 0 C 159.6,30.240000000000002 163.8,42.56 168,56 C 170.1,71.12 186.9,71.12 189,56 C 197.4,25.759999999999998 193.2,13.439999999999998 189,0 C 191.1,-15.120000000000001 207.9,-15.120000000000001 210,0 C 201.6,30.240000000000002 205.8,42.56 210,56 C 212.1,71.12 228.9,71.12 231,56 C 239.4,25.759999999999998 235.2,13.439999999999998 231,0 " stroke="#000000" fill="none" stroke-width="1" stroke-linejoin="round" stroke-linecap="round" vector-effect="non-scaling-stroke" />
<path d="M 252 0 C 243.6,30.240000000000002 247.8,42.56 252,56 C 254.1,71.12 270.9,71.12 273,56 C 281.4,25.759999999999998 277.2,13.439999999999998 273,0 C 275.1,-15.120000000000001 291.9,-15.120000000000001 294,0 C 285.6,30.240000000000002 289.8,42.56 294,56 C 296.1,71.12 312.9,71.12 315,56 C 323.4,25.759999999999998 319.2,13.439999999999998 315,0 " stroke="#000000" fill="none" stroke-width="1" stroke-linejoin="round" stroke-linecap="round" vector-effect="non-scaling-stroke" />
<path d="M 336 0 C 327.6,30.240000000000002 331.8,42.56 336,56 C 338.1,71.12 354.9,71.12 357,56 C 365.4,25.759999999999998 361.2,13.439999999999998 357,0 C 359.1,-15.120000000000001 375.9,-15.120000000000001 378,0 C 369.6,30.240000000000002 373.8,42.56 378,56 C 380.1,71.12 396.9,71.12 399,56 C 407.4,25.759999999999998 403.2,13.439999999999998 399,0 " stroke="#000000" fill="none" stroke-width="1" stroke-linejoin="round" stroke-linecap="round" vector-effect="non-scaling-stroke" />
<path d="M 420 0 C 411.6,30.240000000000002 415.8,42.56 420,56 C 422.1,71.12 438.9,71.12 441,56 C 449.4,25.759999999999998 445.2,13.439999999999998 441,0 C 443.1,-15.120000000000001 459.9,-15.120000000000001 462,0 C 453.6,30.240000000000002 457.8,42.56 462,56 C 464.1,71.12 480.9,71.12 483,56 C 491.4,25.759999999999998 487.2,13.439999999999998 483,0 " stroke="#000000" fill="none" stroke-width="1" stroke-linejoin="round" stroke-linecap="round" vector-effect="non-scaling-stroke" />
<path d="M 504 0 C 495.6,30.240000000000002 499.8,42.56 504,56 C 506.1,71.12 522.9,71.12 525,56 C 533.4,25.759999999999998 529.2,13.439999999999998 525,0 C 527.1,-15.120000000000001 543.9,-15.120000000000001 546,0 C 537.6,30.240000000000002 541.8,42.56 546,56 C 548.1,71.12 564.9,71.12 567,56 C 575.4,25.759999999999998 571.2,13.439999999999998 567,0 " stroke="#000000" fill="none" stroke-width="1" stroke-linejoin="round" stroke-linecap="round" vector-effect="non-scaling-stroke" />
<path d="M 588 0 C 579.6,30.240000000000002 583.8,42.56 588,56 C 590.1,71.12 606.9,71.12 609,56 C 617.4,25.759999999999998 613.2,13.439999999999998 609,0 C 611.1,-15.120000000000001 627.9,-15.120000000000001 630,0 C 621.6,30.240000000000002 625.8,42.56 630,56 C 632.1,71.12 648.9,71.12 651,56 C 659.4,25.759999999999998 655.2,13.439999999999998 651,0 " stroke="#000000" fill="none" stroke-width="1" stroke-linejoin="round" stroke-linecap="round" vector-effect="non-scaling-stroke" />
<path d="M 672 0 C 663.6,30.240000000000002 667.8,42.56 672,56 C 674.1,71.12 690.9,71.12 693,56 C 701.4,25.759999999999998 697.2,13.439999999999998 693,0 C 695.1,-15.120000000000001 711.9,-15.120000000000001 714,0 C 705.6,30.240000000000002 709.8,42.56 714,56 C 716.1,71.12 732.9,71.12 735,56 C 743.4,25.759999999999998 739.2,13.439999999999998 735,0 " stroke="#000000" fill="none" stroke-width="1" stroke-linejoin="round" stroke-linecap="round" vector-effect="non-scaling-stroke" />
<path d="M 756 0 C 747.6,30.240000000000002 751.8,42.56 756,56 C 758.1,71.12 774.9,71.12 777,56 C 785.4,25.759999999999998 781.2,13.439999999999998 777,0 C 779.1,-15.120000000000001 795.9,-15.120000000000001 798,0 C 789.6,30.240000000000002 793.8,42.56 798,56 C 800.1,71.12 816.9,71.12 819,56 C 827.4,25.759999999999998 823.2,13.439999999999998 819,0 " stroke="#000000" fill="none" stroke-width="1" stroke-linejoin="round" stroke-linecap="round" vector-effect="non-scaling-stroke" />
<path d="M 840 56 C 848.4,86.24000000000001 844.2,98.56 840,112 C 837.9,127.12 821.1,127.12 819,112 C 810.6,81.75999999999999 814.8,69.44 819,56 C 816.9,40.879999999999995 800.1,40.879999999999995 798,56 C 806.4,86.24000000000001 802.2,98.56 798,112 C 795.9,127.12 779.1,127.12 777,112 C 768.6,81.75999999999999 772.8,69.44 777,56 " stroke="#000000" fill="none" stroke-width="1" stroke-linejoin="round" stroke-linecap="round" vector-effect="non-scaling-stroke" />
<path d="M 756 56 C 764.4,86.24000000000001 760.2,98.56 756,112 C 753.9,127.12 737.1,127.12 735,112 C 726.6,81.75999999999999 730.8,69.44 735,56 C 732.9,40.879999999999995 716.1,40.879999999999995 714,56 C 722.4,86.24000000000001 718.2,98.56 714,112 C 711.9,127.12 695.1,127.12 693,112 C 684.6,81.75999999999999 688.8,69.44 693,56 " stroke="#000000" fill="none" stroke-width="1" stroke-linejoin="round" stroke-linecap="round" vector-effect="non-scaling-stroke" />
<path d="M 672 56 C 680.4,86.24000000000001 676.2,98.56 672,112 C 669.9,127.12 653.1,127.12 651,112 C 642.6,81.75999999999999 646.8,69.44 651,56 C 648.9,40.879999999999995 632.1,40.879999999999995 630,56 C 638.4,86.24000000000001 634.2,98.56 630,112 C 627.9,127.12 611.1,127.12 609,112 C 600.6,81.75999999999999 604.8,69.44 609,56 " stroke="#000000" fill="none" stroke-width="1" stroke-linejoin="round" stroke-linecap="round" vector-effect="non-scaling-stroke" />
<path d="M 588 56 C 596.4,86.24000000000001 592.2,98.56 588,112 C 585.9,127.12 569.1,127.12 567,112 C 558.6,81.75999999999999 562.8,69.44 567,56 C 564.9,40.879999999999995 548.1,40.879999999999995 546,56 C 554.4,86.24000000000001 550.2,98.56 546,112 C 543.9,127.12 527.1,127.12 525,112 C 516.6,81.75999999999999 520.8,69.44 525,56 " stroke="#000000" fill="none" stroke-width="1" stroke-linejoin="round" stroke-linecap="round" vector-effect="non-scaling-stroke" />
<path d="M 504 56 C 512.4,86.24000000000001 508.2,98.56 504,112 C 501.9,127.12 485.1,127.12 483,112 C 474.6,81.75999999999999 478.8,69.44 483,56 C 480.9,40.879999999999995 464.1,40.879999999999995 462,56 C 470.4,86.24000000000001 466.2,98.56 462,112 C 459.9,127.12 443.1,127.12 441,112 C 432.6,81.75999999999999 436.8,69.44 441,56 " stroke="#000000" fill="none" stroke-width="1" stroke-linejoin="round" stroke-linecap="round" vector-effect="non-scaling-stroke" />
<path d="M 420 56 C 428.4,86.24000000000001 424.2,98.56 420,112 C 417.9,127.12 401.1,127.12 399,112 C 390.6,81.75999999999999 394.8,69.44 399,56 C 396.9,40.879999999999995 380.1,40.879999999999995 378,56 C 386.4,86.24000000000001 382.2,98.56 378,112 C 375.9,127.12 359.1,127.12 357,112 C 348.6,81.75999999999999 352.8,69.44 357,56 " stroke="#000000" fill="none" stroke-width="1" stroke-linejoin="round" stroke-linecap="round" vector-effect="non-scaling-stroke" />
<path d="M 336 56 C 344.4,86.24000000000001 340.2,98.56 336,112 C 333.9,127.12 317.1,127.12 315,112 C 306.6,81.75999999999999 310.8,69.44 315,56 C 312.9,40.879999999999995 296.1,40.879999999999995 294,56 C 302.4,86.24000000000001 298.2,98.56 294,112 C 291.9,127.12 275.1,127.12 273,112 C 264.6,81.75999999999999 268.8,69.44 273,56 " stroke="#000000" fill="none" stroke-width="1" stroke-linejoin="round" stroke-linecap="round" vector-effect="non-scaling-stroke" />
<path d="M 252 56 C 260.4,86.24000000000001 256.2,98.56 252,112 C 249.9,127.12 233.1,127.12 231,112 C 222.6,81.75999999999999 226.8,69.44 231,56 C 228.9,40.879999999999995 212.1,40.879999999999995 210,56 C 218.4,86.24000000000001 214.2,98.56 210,112 C 207.9,127.12 191.1,127.12 189,112 C 180.6,81.75999999999999 184.8,69.44 189,56 " stroke="#000000" fill="none" stroke-width="1" stroke-linejoin="round" stroke-linecap="round" vector-effect="non-scaling-stroke" />
<path d="M 168 56 C 176.4,86.24000000000001 172.2,98.56 168,112 C 165.9,127.12 149.1,127.12 147,112 C 138.6,81.75999999999999 142.8,69.44 147,56 C 144.9,40.879999999999995 128.1,40.879999999999995 126,56 C 134.4,86.24000000000001 130.2,98.56 126,112 C 123.9,127.12 107.1,127.12 105,112 C 96.6,81.75999999999999 100.8,69.44 105,56 " stroke="#000000" fill="none" stroke-width="1" stroke-linejoin="round" stroke-linecap="round" vector-effect="non-scaling-stroke" />
<path d="M 84 56 C 92.4,86.24000000000001 88.2,98.56 84,112 C 81.9,127.12 65.1,127.12 63,112 C 54.6,81.75999999999999 58.8,69.44 63,56 C 60.9,40.879999999999995 44.1,40.879999999999995 42,56 C 50.4,86.24000000000001 46.2,98.56 42,112 C 39.9,127.12 23.1,127.12 21,112 C 12.6,81.75999999999999 16.8,69.44 21,56 " stroke="#000000" fill="none" stroke-width="1" stroke-linejoin="round" stroke-linecap="round" vector-effect="non-scaling-stroke" />
<path d="M 0 112 C -8.4,142.24 -4.2,154.56 0,168 C 2.1,183.12 18.9,183.12 21,168 C 29.4,137.76 25.2,125.44 21,112 C 23.1,96.88 39.9,96.88 42,112 C 33.6,142.24 37.8,154.56 42,168 C 44.1,183.12 60.9,183.12 63,168 C 71.4,137.76 67.2,125.44 63,112 " stroke="#000000" fill="none" stroke-width="1" stroke-linejoin="round" stroke-linecap="round" vector-effect="non-scaling-stroke" />
<path d="M 84 112 C 75.6,142.24 79.8,154.56 84,168 C 86.1,183.12 102.9,183.12 105,168 C 113.4,137.76 109.2,125.44 105,112 C 107.1,96.88 123.9,96.88 126,112 C 117.6,142.24 121.8,154.56 126,168 C 128.1,183.12 144.9,183.12 147,168 C 155.4,137.76 151.2,125.44 147,112 " stroke="#000000" fill="none" stroke-width="1" stroke-linejoin="round" stroke-linecap="round" vector-effect="non-scaling-stroke" />
<path d="M 168 112 C 159.6,142.24 163.8,154.56 168,168 C 170.1,183.12 186.9,183.12 189,168 C 197.4,137.76 193.2,125.44 189,112 C 191.1,96.88 207.9,96.88 210,112 C 201.6,142.24 205.8,154.56 210,168 C 212.1,183.12 228.9,183.12 231,168 C 239.4,137.76 235.2,125.44 231,112 " stroke="#000000" fill="none" stroke-width="1" stroke-linejoin="round" stroke-linecap="round" vector-effect="non-scaling-stroke" />
<path d="M 252 112 C 243.6,142.24 247.8,154.56 252,168 C 254.1,183.12 270.9,183.12 273,168 C 281.4,137.76 277.2,125.44 273,112 C 275.1,96.88 291.9,96.88 294,112 C 285.6,142.24 289.8,154.56 294,168 C 296.1,183.12 312.9,183.12 315,168 C 323.4,137.76 319.2,125.44 315,112 " stroke="#000000" fill="none" stroke-width="1" stroke-linejoin="round" stroke-linecap="round" vector-effect="non-scaling-stroke" />
<path d="M 336 112 C 327.6,142.24 331.8,154.56 336,168 C 338.1,183.12 354.9,183.12 357,168 C 365.4,137.76 361.2,125.44 357,112 C 359.1,96.88 375.9,96.88 378,112 C 369.6,142.24 373.8,154.56 378,168 C 380.1,183.12 396.9,183.12 399,168 C 407.4,137.76 403.2,125.44 399,112 " stroke="#000000" fill="none" stroke-width="1" stroke-linejoin="round" stroke-linecap="round" vector-effect="non-scaling-stroke" />
<path d="M 420 112 C 411.6,142.24 415.8,154.56 420,168 C 422.1,183.12 438.9,183.12 441,168 C 449.4,137.76 445.2,125.44 441,112 C 443.1,96.88 459.9,96.88 462,112 C 453.6,142.24 457.8,154.56 462,168 C 464.1,183.12 480.9,183.12 483,168 C 491.4,137.76 487.2,125.44 483,112 " stroke="#000000" fill="none" stroke-width="1" stroke-linejoin="round" stroke-linecap="round" vector-effect="non-scaling-stroke" />
<path d="M 504 112 C 495.6,142.24 499.8,154.56 504,168 C 506.1,183.12 522.9,183.12 525,168 C 533.4,137.76 529.2,125.44 525,112 C 527.1,96.88 543.9,96.88 546,112 C 537.6,142.24 541.8,154.56 546,168 C 548.1,183.12 564.9,183.12 567,168 C 575.4,137.76 571.2,125.44 567,112 " stroke="#000000" fill="none" stroke-width="1" stroke-linejoin="round" stroke-linecap="round" vector-effect="non-scaling-stroke" />
<path d="M 588 112 C 579.6,142.24 583.8,154.56 588,168 C 590.1,183.12 606.9,183.12 609,168 C 617.4,137.76 613.2,125.44 609,112 C 611.1,96.88 627.9,96.88 630,112 C 621.6,142.24 625.8,154.56 630,168 C 632.1,183.12 648.9,183.12 651,168 C 659.4,137.76 655.2,125.44 651,112 " stroke="#000000" fill="none" stroke-width="1" stroke-linejoin="round" stroke-linecap="round" vector-effect="non-scaling-stroke" />
<path d="M 672 112 C 663.6,142.24 667.8,154.56 672,168 C 674.1,183.12 690.9,183.12 693,168 C 701.4,137.76 697.2,125.44 693,112 C 695.1,96.88 711.9,96.88 714,112 C 705.6,142.24 709.8,154.56 714,168 C 716.1,183.12 732.9,183.12 735,168 C 743.4,137.76 739.2,125.44 735,112 " stroke="#000000" fill="none" stroke-width="1" stroke-linejoin="round" stroke-linecap="round" vector-effect="non-scaling-stroke" />
<path d="M 756 112 C 747.6,142.24 751.8,154.56 756,168 C 758.1,183.12 774.9,183.12 777,168 C 785.4,137.76 781.2,125.44 777,112 C 779.1,96.88 795.9,96.88 798,112 C 789.6,142.24 793.8,154.56 798,168 C 800.1,183.12 816.9,183.12 819,168 C 827.4,137.76 823.2,125.44 819,112 " stroke="#000000" fill="none" stroke-width="1" stroke-linejoin="round" stroke-linecap="round" vector-effect="non-scaling-stroke" />
<path d="M 840 168 C 848.4,198.24 844.2,210.56 840,224 C 837.9,239.12 821.1,239.12 819,224 C 810.6,193.76 814.8,181.44 819,168 C 816.9,152.88 800.1,152.88 798,168 C 806.4,198.24 802.2,210.56 798,224 C 795.9,239.12 779.1,239.12 777,224 C 768.6,193.76 772.8,181.44 777,168 " stroke="#000000" fill="none" stroke-width="1" stroke-linejoin="round" stroke-linecap="round" vector-effect="non-scaling-stroke" />
<path d="M 756 168 C 764.4,198.24 760.2,210.56 756,224 C 753.9,239.12 737.1,239.12 735,224 C 726.6,193.76 730.8,181.44 735,168 C 732.9,152.88 716.1,152.88 714,168 C 722.4,198.24 718.2,210.56 714,224 C 711.9,239.12 695.1,239.12 693,224 C 684.6,193.76 688.8,181.44 693,168 " stroke="#000000" fill="none" stroke-width="1" stroke-linejoin="round" stroke-linecap="round" vector-effect="non-scaling-stroke" />
<path d="M 672 168 C 680.4,198.24 676.2,210.56 672,224 C 669.9,239.12 653.1,239.12 651,224 C 642.6,193.76 646.8,181.44 651,168 C 648.9,152.88 632.1,152.88 630,168 C 638.4,198.24 634.2,210.56 630,224 C 627.9,239.12 611.1,239.12 609,224 C 600.6,193.76 604.8,181.44 609,168 " stroke="#000000" fill="none" stroke-width="1" stroke-linejoin="round" stroke-linecap="round" vector-effect="non-scaling-stroke" />
<path d="M 588 168 C 596.4,198.24 592.2,210.56 588,224 C 585.9,239.12 569.1,239.12 567,224 C 558.6,193.76 562.8,181.44 567,168 C 564.9,152.88 548.1,152.88 546,168 C 554.4,198.24 550.2,210.56 546,224 C 543.9,239.12 527.1,239.12 525,224 C 516.6,193.76 520.8,181.44 525,168 " stroke="#000000" fill="none" stroke-width="1" stroke-linejoin="round" stroke-linecap="round" vector-effect="non-scaling-stroke" />
<path d="M 504 168 C 512.4,198.24 508.2,210.56 504,224 C 501.9,239.12 485.1,239.12 483,224 C 474.6,193.76 478.8,181.44 483,168 C 480.9,152.88 464.1,152.88 462,168 C 470.4,198.24 466.2,210.56 462,224 C 459.9,239.12 443.1,239.12 441,224 C 432.6,193.76 436.8,181.44 441,168 " stroke="#000000" fill="none" stroke-width="1" stroke-linejoin="round" stroke-linecap="round" vector-effect="non-scaling-stroke" />
<path d="M 420 168 C 428.4,198.24 424.2,210.56 420,224 C 417.9,239.12 401.1,239.12 399,224 C 390.6,193.76 394.8,181.44 399,168 C 396.9,152.88 380.1,152.88 378,168 C 386.4,198.24 382.2,210.56 378,224 C 375.9,239.12 359.1,239.12 357,224 C 348.6,193.76 352.8,181.44 357,168 " stroke="#000000" fill="none" stroke-width="1" stroke-linejoin="round" stroke-linecap="round" vector-effect="non-scaling-stroke" />
<path d="M 336 168 C 344.4,198.24 340.2,210.56 336,224 C 333.9,239.12 317.1,239.12 315,224 C 306.6,193.76 310.8,181.44 315,168 C 312.9,152.88 296.1,152.88 294,168 C 302.4,198.24 298.2,210.56 294,224 C 291.9,239.12 275.1,239.12 273,224 C 264.6,193.76 268.8,181.44 273,168 " stroke="#000000" fill="none" stroke-width="1" stroke-linejoin="round" stroke-linecap="round" vector-effect="non-scaling-stroke" />
<path d="M 252 168 C 260.4,198.24 256.2,210.56 252,224 C 249.9,239.12 233.1,239.12 231,224 C 222.6,193.76 226.8,181.44 231,168 C 228.9,152.88 212.1,152.88 210,168 C 218.4,198.24 214.2,210.56 210,224 C 207.9,239.12 191.1,239.12 189,224 C 180.6,193.76 184.8,181.44 189,168 " stroke="#000000" fill="none" stroke-width="1" stroke-linejoin="round" stroke-linecap="round" vector-effect="non-scaling-stroke" />
<path d="M 168 168 C 176.4,198.24 172.2,210.56 168,224 C 165.9,239.12 149.1,239.12 147,224 C 138.6,193.76 142.8,181.44 147,168 C 144.9,152.88 128.1,152.88 126,168 C 134.4,198.24 130.2,210.56 126,224 C 123.9,239.12 107.1,239.12 105,224 C 96.6,193.76 100.8,181.44 105,168 " stroke="#000000" fill="none" stroke-width="1" stroke-linejoin="round" stroke-linecap="round" vector-effect="non-scaling-stroke" />
<path d="M 84 168 C 92.4,198.24 88.2,210.56 84,224 C 81.9,239.12 65.1,239.12 63,224 C 54.6,193.76 58.8,181.44 63,168 C 60.9,152.88 44.1,152.88 42,168 C 50.4,198.24 46.2,210.56 42,224 C 39.9,239.12 23.1,239.12 21,224 C 12.6,193.76 16.8,181.44 21,168 " stroke="#000000" fill="none" stroke-width="1" stroke-linejoin="round" stroke-linecap="round" vector-effect="non-scaling-stroke" />
<path d="M 0 224 C -8.4,254.24 -4.2,266.56 0,280 C 2.1,295.12 18.9,295.12 21,280 C 29.4,249.76 25.2,237.44 21,224 C 23.1,208.88 39.9,208.88 42,224 C 33.6,254.24 37.8,266.56 42,280 C 44.1,295.12 60.9,295.12 63,280 C 71.4,249.76 67.2,237.44 63,224 " stroke="#000000" fill="none" stroke-width="1" stroke-linejoin="round" stroke-linecap="round" vector-effect="non-scaling-stroke" />
<path d="M 84 224 C 75.6,254.24 79.8,266.56 84,280 C 86.1,295.12 102.9,295.12 105,280 C 113.4,249.76 109.2,237.44 105,224 C 107.1,208.88 123.9,208.88 126,224 C 117.6,254.24 121.8,266.56 126,280 C 128.1,295.12 144.9,295.12 147,280 C 155.4,249.76 151.2,237.44 147,224 " stroke="#000000" fill="none" stroke-width="1" stroke-linejoin="round" stroke-linecap="round" vector-effect="non-scaling-stroke" />
<path d="M 168 224 C 159.6,254.24 163.8,266.56 168,280 C 170.1,295.12 186.9,295.12 189,280 C 197.4,249.76 193.2,237.44 189,224 C 191.1,208.88 207.9,208.88 210,224 C 201.6,254.24 205.8,266.56 210,280 C 212.1,295.12 228.9,295.12 231,280 C 239.4,249.76 235.2,237.44 231,224 " stroke="#000000" fill="none" stroke-width="1" stroke-linejoin="round" stroke-linecap="round" vector-effect="non-scaling-stroke" />
<path d="M 252 224 C 243.6,254.24 247.8,266.56 252,280 C 254.1,295.12 270.9,295.12 273,280 C 281.4,249.76 277.2,237.44 273,224 C 275.1,208.88 291.9,208.88 294,224 C 285.6,254.24 289.8,266.56 294,280 C 296.1,295.12 312.9,295.12 315,280 C 323.4,249.76 319.2,237.44 315,224 " stroke="#000000" fill="none" stroke-width="1" stroke-linejoin="round" stroke-linecap="round" vector-effect="non-scaling-stroke" />
<path d="M 336 224 C 327.6,254.24 331.8,266.56 336,280 C 338.1,295.12 354.9,295.12 357,280 C 365.4,249.76 361.2,237.44 357,224 C 359.1,208.88 375.9,208.88 378,224 C 369.6,254.24 373.8,266.56 378,280 C 380.1,295.12 396.9,295.12 399,280 C 407.4,249.76 403.2,237.44 399,224 " stroke="#000000" fill="none" stroke-width="1" stroke-linejoin="round" stroke-linecap="round" vector-effect="non-scaling-stroke" />
<path d="M 420 224 C 411.6,254.24 415.8,266.56 420,280 C 422.1,295.12 438.9,295.12 441,280 C 449.4,249.76 445.2,237.44 441,224 C 443.1,208.88 459.9,208.88 462,224 C 453.6,254.24 457.8,266.56 462,280 C 464.1,295.12 480.9,295.12 483,280 C 491.4,249.76 487.2,237.44 483,224 " stroke="#000000" fill="none" stroke-width="1" stroke-linejoin="round" stroke-linecap="round" vector-effect="non-scaling-stroke" />
<path d="M 504 224 C 495.6,254.24 499.8,266.56 504,280 C 506.1,295.12 522.9,295.12 525,280 C 533.4,249.76 529.2,237.44 525,224 C 527.1,208.88 543.9,208.88 546,224 C 537.6,254.24 541.8,266.56 546,280 C 548.1,295.12 564.9,295.12 567,280 C 575.4,249.76 571.2,237.44 567,224 " stroke="#000000" fill="none" stroke-width="1" stroke-linejoin="round" stroke-linecap="round" vector-effect="non-scaling-stroke" />
<path d="M 588 224 C 579.6,254.24 583.8,266.56 588,280 C 590.1,295.12 606.9,295.12 609,280 C 617.4,249.76 613.2,237.44 609,224 C 611.1,208.88 627.9,208.88 630,224 C 621.6,254.24 625.8,266.56 630,280 C 632.1,295.12 648.9,295.12 651,280 C 659.4,249.76 655.2,237.44 651,224 " stroke="#000000" fill="none" stroke-width="1" stroke-linejoin="round" stroke-linecap="round" vector-effect="non-scaling-stroke" />
<path d="M 672 224 C 663.6,254.24 667.8,266.56 672,280 C 674.1,295.12 690.9,295.12 693,280 C 701.4,249.76 697.2,237.44 693,224 C 695.1,208.88 711.9,208.88 714,224 C 705.6,254.24 709.8,266.56 714,280 C 716.1,295.12 732.9,295.12 735,280 C 743.4,249.76 739.2,237.44 735,224 " stroke="#000000" fill="none" stroke-width="1" stroke-linejoin="round" stroke-linecap="round" vector-effect="non-scaling-stroke" />
<path d="M 756 224 C 747.6,254.24 751.8,266.56 756,280 C 758.1,295.12 774.9,295.12 777,280 C 785.4,249.76 781.2,237.44 777,224 C 779.1,208.88 795.9,208.88 798,224 C 789.6,254.24 793.8,266.56 798,280 C 800.1,295.12 816.9,295.12 819,280 C 827.4,249.76 823.2,237.44 819,224 " stroke="#000000" fill="none" stroke-width="1" stroke-linejoin="round" stroke-linecap="round" vector-effect="non-scaling-stroke" />
<path d="M 840 280 C 848.4,310.24 844.2,322.56 840,336 C 837.9,351.12 821.1,351.12 819,336 C 810.6,305.76 814.8,293.44 819,280 C 816.9,264.88 800.1,264.88 798,280 C 806.4,310.24 802.2,322.56 798,336 C 795.9,351.12 779.1,351.12 777,336 C 768.6,305.76 772.8,293.44 777,280 " stroke="#000000" fill="none" stroke-width="1" stroke-linejoin="round" stroke-linecap="round" vector-effect="non-scaling-stroke" />
<path d="M 756 280 C 764.4,310.24 760.2,322.56 756,336 C 753.9,351.12 737.1,351.12 735,336 C 726.6,305.76 730.8,293.44 735,280 C 732.9,264.88 716.1,264.88 714,280 C 722.4,310.24 718.2,322.56 714,336 C 711.9,351.12 695.1,351.12 693,336 C 684.6,305.76 688.8,293.44 693,280 " stroke="#000000" fill="none" stroke-width="1" stroke-linejoin="round" stroke-linecap="round" vector-effect="non-scaling-stroke" />
<path d="M 672 280 C 680.4,310.24 676.2,322.56 672,336 C 669.9,351.12 653.1,351.12 651,336 C 642.6,305.76 646.8,293.44 651,280 C 648.9,264.88 632.1,264.88 630,280 C 638.4,310.24 634.2,322.56 630,336 C 627.9,351.12 611.1,351.12 609,336 C 600.6,305.76 604.8,293.44 609,280 " stroke="#000000" fill="none" stroke-width="1" stroke-linejoin="round" stroke-linecap="round" vector-effect="non-scaling-stroke" />
<path d="M 588 280 C 596.4,310.24 592.2,322.56 588,336 C 585.9,351.12 569.1,351.12 567,336 C 558.6,305.76 562.8,293.44 567,280 C 564.9,264.88 548.1,264.88 546,280 C 554.4,310.24 550.2,322.56 546,336 C 543.9,351.12 527.1,351.12 525,336 C 516.6,305.76 520.8,293.44 525,280 " stroke="#000000" fill="none" stroke-width="1" stroke-linejoin="round" stroke-linecap="round" vector-effect="non-scaling-stroke" />
<path d="M 504 280 C 512.4,310.24 508.2,322.56 504,336 C 501.9,351.12 485.1,351.12 483,336 C 474.6,305.76 478.8,293.44 483,280 C 480.9,264.88 464.1,264.88 462,280 C 470.4,310.24 466.2,322.56 462,336 C 459.9,351.12 443.1,351.12 441,336 C 432.6,305.76 436.8,293.44 441,280 " stroke="#000000" fill="none" stroke-width="1" stroke-linejoin="round" stroke-linecap="round" vector-effect="non-scaling-stroke" />
<path d="M 420 280 C 428.4,310.24 424.2,322.56 420,336 C 417.9,351.12 401.1,351.12 399,336 C 390.6,305.76 394.8,293.44 399,280 C 396.9,264.88 380.1,264.88 378,280 C 386.4,310.24 382.2,322.56 378,336 C 375.9,351.12 359.1,351.12 357,336 C 348.6,305.76 352.8,293.44 357,280 " stroke="#000000" fill="none" stroke-width="1" stroke-linejoin="round" stroke-linecap="round" vector-effect="non-scaling-stroke" />
<path d="M 336 280 C 344.4,310.24 340.2,322.56 336,336 C 333.9,351.12 317.1,351.12 315,336 C 306.6,305.76 310.8,293.44 315,280 C 312.9,264.88 296.1,264.88 294,280 C 302.4,310.24 298.2,322.56 294,336 C 291.9,351.12 275.1,351.12 273,336 C 264.6,305.76 268.8,293.44 273,280 " stroke="#000000" fill="none" stroke-width="1" stroke-linejoin="round" stroke-linecap="round" vector-effect="non-scaling-stroke" />
<path d="M 252 280 C 260.4,310.24 256.2,322.56 252,336 C 249.9,351.12 233.1,351.12 231,336 C 222.6,305.76 226.8,293.44 231,280 C 228.9,264.88 212.1,264.88 210,280 C 218.4,310.24 214.2,322.56 210,336 C 207.9,351.12 191.1,351.12 189,336 C 180.6,305.76 184.8,293.44 189,280 " stroke="#000000" fill="none" stroke-width="1" stroke-linejoin="round" stroke-linecap="round" vector-effect="non-scaling-stroke" />
<path d="M 168 280 C 176.4,310.24 172.2,322.56 168,336 C 165.9,351.12 149.1,351.12 147,336 C 138.6,305.76 142.8,293.44 147,280 C 144.9,264.88 128.1,264.88 126,280 C 134.4,310.24 130.2,322.56 126,336 C 123.9,351.12 107.1,351.12 105,336 C 96.6,305.76 100.8,293.44 105,280 " stroke="#000000" fill="none" stroke-width="1" stroke-linejoin="round" stroke-linecap="round" vector-effect="non-scaling-stroke" />
<path d="M 84 280 C 92.4,310.24 88.2,322.56 84,336 C 81.9,351.12 65.1,351.12 63,336 C 54.6,305.76 58.8,293.44 63,280 C 60.9,264.88 44.1,264.88 42,280 C 50.4,310.24 46.2,322.56 42,336 C 39.9,351.12 23.1,351.12 21,336 C 12.6,305.76 16.8,293.44 21,280 " stroke="#000000" fill="none" stroke-width="1" stroke-linejoin="round" stroke-linecap="round" vector-effect="non-scaling-stroke" />
<path d="M 0 336 C -8.4,366.24 -4.2,378.56 0,392 C 2.1,407.12 18.9,407.12 21,392 C 29.4,361.76 25.2,349.44 21,336 C 23.1,320.88 39.9,320.88 42,336 C 33.6,366.24 37.8,378.56 42,392 C 44.1,407.12 60.9,407.12 63,392 C 71.4,361.76 67.2,349.44 63,336 " stroke="#000000" fill="none" stroke-width="1" stroke-linejoin="round" stroke-linecap="round" vector-effect="non-scaling-stroke" />
<path d="M 84 336 C 75.6,366.24 79.8,378.56 84,392 C 86.1,407.12 102.9,407.12 105,392 C 113.4,361.76 109.2,349.44 105,336 C 107.1,320.88 123.9,320.88 126,336 C 117.6,366.24 121.8,378.56 126,392 C 128.1,407.12 144.9,407.12 147,392 C 155.4,361.76 151.2,349.44 147,336 " stroke="#000000" fill="none" stroke-width="1" stroke-linejoin="round" stroke-linecap="round" vector-effect="non-scaling-stroke" />
<path d="M 168 336 C 159.6,366.24 163.8,378.56 168,392 C 170.1,407.12 186.9,407.12 189,392 C 197.4,361.76 193.2,349.44 189,336 C 191.1,320.88 207.9,320.88 210,336 C 201.6,366.24 205.8,378.56 210,392 C 212.1,407.12 228.9,407.12 231,392 C 239.4,361.76 235.2,349.44 231,336 " stroke="#000000" fill="none" stroke-width="1" stroke-linejoin="round" stroke-linecap="round" vector-effect="non-scaling-stroke" />
<path d="M 252 336 C 243.6,366.24 247.8,378.56 252,392 C 254.1,407.12 270.9,407.12 273,392 C 281.4,361.76 277.2,349.44 273,336 C 275.1,320.88 291.9,320.88 294,336 C 285.6,366.24 289.8,378.56 294,392 C 296.1,407.12 312.9,407.12 315,392 C 323.4,361.76 319.2,349.44 315,336 " stroke="#000000" fill="none" stroke-width="1" stroke-linejoin="round" stroke-linecap="round" vector-effect="non-scaling-stroke" />
<path d="M 336 336 C 327.6,366.24 331.8,378.56 336,392 C 338.1,407.12 354.9,407.12 357,392 C 365.4,361.76 361.2,349.44 357,336 C 359.1,320.88 375.9,320.88 378,336 C 369.6,366.24 373.8,378.56 378,392 C 380.1,407.12 396.9,407.12 399,392 C 407.4,361.76 403.2,349.44 399,336 " stroke="#000000" fill="none" stroke-width="1" stroke-linejoin="round" stroke-linecap="round" vector-effect="non-scaling-stroke" />
<path d="M 420 336 C 411.6,366.24 415.8,378.56 420,392 C 422.1,407.12 438.9,407.12 441,392 C 449.4,361.76 445.2,349.44 441,336 C 443.1,320.88 459.9,320.88 462,336 C 453.6,366.24 457.8,378.56 462,392 C 464.1,407.12 480.9,407.12 483,392 C 491.4,361.76 487.2,349.44 483,336 " stroke="#000000" fill="none" stroke-width="1" stroke-linejoin="round" stroke-linecap="round" vector-effect="non-scaling-stroke" />
<path d="M 504 336 C 495.6,366.24 499.8,378.56 504,392 C 506.1,407.12 522.9,407.12 525,392 C 533.4,361.76 529.2,349.44 525,336 C 527.1,320.88 543.9,320.88 546,336 C 537.6,366.24 541.8,378.56 546,392 C 548.1,407.12 564.9,407.12 567,392 C 575.4,361.76 571.2,349.44 567,336 " stroke="#000000" fill="none" stroke-width="1" stroke-linejoin="round" stroke-linecap="round" vector-effect="non-scaling-stroke" />
<path d="M 588 336 C 579.6,366.24 583.8,378.56 588,392 C 590.1,407.12 606.9,407.12 609,392 C 617.4,361.76 613.2,349.44 609,336 C 611.1,320.88 627.9,320.88 630,336 C 621.6,366.24 625.8,378.56 630,392 C 632.1,407.12 648.9,407.12 651,392 C 659.4,361.76 655.2,349.44 651,336 " stroke="#000000" fill="none" stroke-width="1" stroke-linejoin="round" stroke-linecap="round" vector-effect="non-scaling-stroke" />
<path d="M 672 336 C 663.6,366.24 667.8,378.56 672,392 C 674.1,407.12 690.9,407.12 693,392 C 701.4,361.76 697.2,349.44 693,336 C 695.1,320.88 711.9,320.88 714,336 C 705.6,366.24 709.8,378.56 714,392 C 716.1,407.12 732.9,407.12 735,392 C 743.4,361.76 739.2,349.44 735,336 " stroke="#000000" fill="none" stroke-width="1" stroke-linejoin="round" stroke-linecap="round" vector-effect="non-scaling-stroke" />
<path d="M 756 336 C 747.6,366.24 751.8,378.56 756,392 C 758.1,407.12 774.9,407.12 777,392 C 785.4,361.76 781.2,349.44 777,336 C 779.1,320.88 795.9,320.88 798,336 C 789.6,366.24 793.8,378.56 798,392 C 800.1,407.12 816.9,407.12 819,392 C 827.4,361.76 823.2,349.44 819,336 " stroke="#000000" fill="none" stroke-width="1" stroke-linejoin="round" stroke-linecap="round" vector-effect="non-scaling-stroke" />
<path d="M 840 392 C 848.4,422.24 844.2,434.56 840,448 C 837.9,463.12 821.1,463.12 819,448 C 810.6,417.76 814.8,405.44 819,392 C 816.9,376.88 800.1,376.88 798,392 C 806.4,422.24 802.2,434.56 798,448 C 795.9,463.12 779.1,463.12 777,448 C 768.6,417.76 772.8,405.44 777,392 " stroke="#000000" fill="none" stroke-width="1" stroke-linejoin="round" stroke-linecap="round" vector-effect="non-scaling-stroke" />
<path d="M 756 392 C 764.4,422.24 760.2,434.56 756,448 C 753.9,463.12 737.1,463.12 735,448 C 726.6,417.76 730.8,405.44 735,392 C 732.9,376.88 716.1,376.88 714,392 C 722.4,422.24 718.2,434.56 714,448 C 711.9,463.12 695.1,463.12 693,448 C 684.6,417.76 688.8,405.44 693,392 " stroke="#000000" fill="none" stroke-width="1" stroke-linejoin="round" stroke-linecap="round" vector-effect="non-scaling-stroke" />
<path d="M 672 392 C 680.4,422.24 676.2,434.56 672,448 C 669.9,463.12 653.1,463.12 651,448 C 642.6,417.76 646.8,405.44 651,392 C 648.9,376.88 632.1,376.88 630,392 C 638.4,422.24 634.2,434.56 630,448 C 627.9,463.12 611.1,463.12 609,448 C 600.6,417.76 604.8,405.44 609,392 " stroke="#000000" fill="none" stroke-width="1" stroke-linejoin="round" stroke-linecap="round" vector-effect="non-scaling-stroke" />
<path d="M 588 392 C 596.4,422.24 592.2,434.56 588,448 C 585.9,463.12 569.1,463.12 567,448 C 558.6,417.76 562.8,405.44 567,392 C 564.9,376.88 548.1,376.88 546,392 C 554.4,422.24 550.2,434.56 546,448 C 543.9,463.12 527.1,463.12 525,448 C 516.6,417.76 520.8,405.44 525,392 " stroke="#000000" fill="none" stroke-width="1" stroke-linejoin="round" stroke-linecap="round" vector-effect="non-scaling-stroke" />
<path d="M 504 392 C 512.4,422.24 508.2,434.56 504,448 C 501.9,463.12 485.1,463.12 483,448 C 474.6,417.76 478.8,405.44 483,392 C 480.9,376.88 464.1,376.88 462,392 C 470.4,422.24 466.2,434.56 462,448 C 459.9,463.12 443.1,463.12 441,448 C 432.6,417.76 436.8,405.44 441,392 " stroke="#000000" fill="none" stroke-width="1" stroke-linejoin="round" stroke-linecap="round" vector-effect="non-scaling-stroke" />
<path d="M 420 392 C 428.4,422.24 424.2,434.56 420,448 C 417.9,463.12 401.1,463.12 399,448 C 390.6,417.76 394.8,405.44 399,392 C 396.9,376.88 380.1,376.88 378,392 C 386.4,422.24 382.2,434.56 378,448 C 375.9,463.12 359.1,463.12 357,448 C 348.6,417.76 352.8,405.44 357,392 " stroke="#000000" fill="none" stroke-width="1" stroke-linejoin="round" stroke-linecap="round" vector-effect="non-scaling-stroke" />
<path d="M 336 392 C 344.4,422.24 340.2,434.56 336,448 C 333.9,463.12 317.1,463.12 315,448 C 306.6,417.76 310.8,405.44 315,392 C 312.9,376.88 296.1,376.88 294,392 C 302.4,422.24 298.2,434.56 294,448 C 291.9,463.12 275.1,463.12 273,448 C 264.6,417.76 268.8,405.44 273,392 " stroke="#000000" fill="none" stroke-width="1" stroke-linejoin="round" stroke-linecap="round" vector-effect="non-scaling-stroke" />
<path d="M 252 392 C 260.4,422.24 256.2,434.56 252,448 C 249.9,463.12 233.1,463.12 231,448 C 222.6,417.76 226.8,405.44 231,392 C 228.9,376.88 212.1,376.88 210,392 C 218.4,422.24 214.2,434.56 210,448 C 207.9,463.12 191.1,463.12 189,448 C 180.6,417.76 184.8,405.44 189,392 " stroke="#000000" fill="none" stroke-width="1" stroke-linejoin="round" stroke-linecap="round" vector-effect="non-scaling-stroke" />
<path d="M 168 392 C 176.4,422.24 172.2,434.56 168,448 C 165.9,463.12 149.1,463.12 147,448 C 138.6,417.76 142.8,405.44 147,392 C 144.9,376.88 128.1,376.88 126,392 C 134.4,422.24 130.2,434.56 126,448 C 123.9,463.12 107.1,463.12 105,448 C 96.6,417.76 100.8,405.44 105,392 " stroke="#000000" fill="none" stroke-width="1" stroke-linejoin="round" stroke-linecap="round" vector-effect="non-scaling-stroke" />
<path d="M 84 392 C 92.4,422.24 88.2,434.56 84,448 C 81.9,463.12 65.1,463.12 63,448 C 54.6,417.76 58.8,405.44 63,392 C 60.9,376.88 44.1,376.88 42,392 C 50.4,422.24 46.2,434.56 42,448 C 39.9,463.12 23.1,463.12 21,448 C 12.6,417.76 16.8,405.44 21,392 " stroke="#000000" fill="none" stroke-width="1" stroke-linejoin="round" stroke-linecap="round" vector-effect="non-scaling-stroke" />
<path d="M 0 448 C -8.4,478.24 -4.2,490.56 0,504 C 2.1,519.12 18.9,519.12 21,504 C 29.4,473.76 25.2,461.44 21,448 C 23.1,432.88 39.9,432.88 42,448 C 33.6,478.24 37.8,490.56 42,504 C 44.1,519.12 60.9,519.12 63,504 C 71.4,473.76 67.2,461.44 63,448 " stroke="#000000" fill="none" stroke-width="1" stroke-linejoin="round" stroke-linecap="round" vector-effect="non-scaling-stroke" />
<path d="M 84 448 C 75.6,478.24 79.8,490.56 84,504 C 86.1,519.12 102.9,519.12 105,504 C 113.4,473.76 109.2,461.44 105,448 C 107.1,432.88 123.9,432.88 126,448 C 117.6,478.24 121.8,490.56 126,504 C 128.1,519.12 144.9,519.12 147,504 C 155.4,473.76 151.2,461.44 147,448 " stroke="#000000" fill="none" stroke-width="1" stroke-linejoin="round" stroke-linecap="round" vector-effect="non-scaling-stroke" />
<path d="M 168 448 C 159.6,478.24 163.8,490.56 168,504 C 170.1,519.12 186.9,519.12 189,504 C 197.4,473.76 193.2,461.44 189,448 C 191.1,432.88 207.9,432.88 210,448 C 201.6,478.24 205.8,490.56 210,504 C 212.1,519.12 228.9,519.12 231,504 C 239.4,473.76 235.2,461.44 231,448 " stroke="#000000" fill="none" stroke-width="1" stroke-linejoin="round" stroke-linecap="round" vector-effect="non-scaling-stroke" />
<path d="M 252 448 C 243.6,478.24 247.8,490.56 252,504 C 254.1,519.12 270.9,519.12 273,504 C 281.4,473.76 277.2,461.44 273,448 C 275.1,432.88 291.9,432.88 294,448 C 285.6,478.24 289.8,490.56 294,504 C 296.1,519.12 312.9,519.12 315,504 C 323.4,473.76 319.2,461.44 315,448 " stroke="#000000" fill="none" stroke-width="1" stroke-linejoin="round" stroke-linecap="round" vector-effect="non-scaling-stroke" />
<path d="M 336 448 C 327.6,478.24 331.8,490.56 336,504 C 338.1,519.12 354.9,519.12 357,504 C 365.4,473.76 361.2,461.44 357,448 C 359.1,432.88 375.9,432.88 378,448 C 369.6,478.24 373.8,490.56 378,504 C 380.1,519.12 396.9,519.12 399,504 C 407.4,473.76 403.2,461.44 399,448 " stroke="#000000" fill="none" stroke-width="1" stroke-linejoin="round" stroke-linecap="round" vector-effect="non-scaling-stroke" />
<path d="M 420 448 C 411.6,478.24 415.8,490.56 420,504 C 422.1,519.12 438.9,519.12 441,504 C 449.4,473.76 445.2,461.44 441,448 C 443.1,432.88 459.9,432.88 462,448 C 453.6,478.24 457.8,490.56 462,504 C 464.1,519.12 480.9,519.12 483,504 C 491.4,473.76 487.2,461.44 483,448 " stroke="#000000" fill="none" stroke-width="1" stroke-linejoin="round" stroke-linecap="round" vector-effect="non-scaling-stroke" />
<path d="M 504 448 C 495.6,478.24 499.8,490.56 504,504 C 506.1,519.12 522.9,519.12 525,504 C 533.4,473.76 529.2,461.44 525,448 C 527.1,432.88 543.9,432.88 546,448 C 537.6,478.24 541.8,490.56 546,504 C 548.1,519.12 564.9,519.12 567,504 C 575.4,473.76 571.2,461.44 567,448 " stroke="#000000" fill="none" stroke-width="1" stroke-linejoin="round" stroke-linecap="round" vector-effect="non-scaling-stroke" />
<path d="M 588 448 C 579.6,478.24 583.8,490.56 588,504 C 590.1,519.12 606.9,519.12 609,504 C 617.4,473.76 613.2,461.44 609,448 C 611.1,432.88 627.9,432.88 630,448 C 621.6,478.24 625.8,490.56 630,504 C 632.1,519.12 648.9,519.12 651,504 C 659.4,473.76 655.2,461.44 651,448 " stroke="#000000" fill="none" stroke-width="1" stroke-linejoin="round" stroke-linecap="round" vector-effect="non-scaling-stroke" />
<path d="M 672 448 C 663.6,478.24 667.8,490.56 672,504 C 674.1,519.12 690.9,519.12 693,504 C 701.4,473.76 697.2,461.44 693,448 C 695.1,432.88 711.9,432.88 714,448 C 705.6,478.24 709.8,490.56 714,504 C 716.1,519.12 732.9,519.12 735,504 C 743.4,473.76 739.2,461.44 735,448 " stroke="#000000" fill="none" stroke-width="1" stroke-linejoin="round" stroke-linecap="round" vector-effect="non-scaling-stroke" />
<path d="M 756 448 C 747.6,478.24 751.8,490.56 756,504 C 758.1,519.12 774.9,519.12 777,504 C 785.4,473.76 781.2,461.44 777,448 C 779.1,432.88 795.9,432.88 798,448 C 789.6,478.24 793.8,490.56 798,504 C 800.1,519.12 816.9,519.12 819,504 C 827.4,473.76 823.2,461.44 819,448 " stroke="#000000" fill="none" stroke-width="1" stroke-linejoin="round" stroke-linecap="round" vector-effect="non-scaling-stroke" />
<path d="M 840 504 C 848.4,534.24 844.2,546.56 840,560 C 837.9,575.12 821.1,575.12 819,560 C 810.6,529.76 814.8,517.44 819,504 C 816.9,488.88 800.1,488.88 798,504 C 806.4,534.24 802.2,546.56 798,560 C 795.9,575.12 779.1,575.12 777,560 C 768.6,529.76 772.8,517.44 777,504 " stroke="#000000" fill="none" stroke-width="1" stroke-linejoin="round" stroke-linecap="round" vector-effect="non-scaling-stroke" />
<path d="M 756 504 C 764.4,534.24 760.2,546.56 756,560 C 753.9,575.12 737.1,575.12 735,560 C 726.6,529.76 730.8,517.44 735,504 C 732.9,488.88 716.1,488.88 714,504 C 722.4,534.24 718.2,546.56 714,560 C 711.9,575.12 695.1,575.12 693,560 C 684.6,529.76 688.8,517.44 693,504 " stroke="#000000" fill="none" stroke-width="1" stroke-linejoin="round" stroke-linecap="round" vector-effect="non-scaling-stroke" />
<path d="M 672 504 C 680.4,534.24 676.2,546.56 672,560 C 669.9,575.12 653.1,575.12 651,560 C 642.6,529.76 646.8,517.44 651,504 C 648.9,488.88 632.1,488.88 630,504 C 638.4,534.24 634.2,546.56 630,560 C 627.9,575.12 611.1,575.12 609,560 C 600.6,529.76 604.8,517.44 609,504 " stroke="#000000" fill="none" stroke-width="1" stroke-linejoin="round" stroke-linecap="round" vector-effect="non-scaling-stroke" />
<path d="M 588 504 C 596.4,534.24 592.2,546.56 588,560 C 585.9,575.12 569.1,575.12 567,560 C 558.6,529.76 562.8,517.44 567,504 C 564.9,488.88 548.1,488.88 546,504 C 554.4,534.24 550.2,546.56 546,560 C 543.9,575.12 527.1,575.12 525,560 C 516.6,529.76 520.8,517.44 525,504 " stroke="#000000" fill="none" stroke-width="1" stroke-linejoin="round" stroke-linecap="round" vector-effect="non-scaling-stroke" />
<path d="M 504 504 C 512.4,534.24 508.2,546.56 504,560 C 501.9,575.12 485.1,575.12 483,560 C 474.6,529.76 478.8,517.44 483,504 C 480.9,488.88 464.1,488.88 462,504 C 470.4,534.24 466.2,546.56 462,560 C 459.9,575.12 443.1,575.12 441,560 C 432.6,529.76 436.8,517.44 441,504 " stroke="#000000" fill="none" stroke-width="1" stroke-linejoin="round" stroke-linecap="round" vector-effect="non-scaling-stroke" />
<path d="M 420 504 C 428.4,534.24 424.2,546.56 420,560 C 417.9,575.12 401.1,575.12 399,560 C 390.6,529.76 394.8,517.44 399,504 C 396.9,488.88 380.1,488.88 378,504 C 386.4,534.24 382.2,546.56 378,560 C 375.9,575.12 359.1,575.12 357,560 C 348.6,529.76 352.8,517.44 357,504 " stroke="#000000" fill="none" stroke-width="1" stroke-linejoin="round" stroke-linecap="round" vector-effect="non-scaling-stroke" />
<path d="M 336 504 C 344.4,534.24 340.2,546.56 336,560 C 333.9,575.12 317.1,575.12 315,560 C 306.6,529.76 310.8,517.44 315,504 C 312.9,488.88 296.1,488.88 294,504 C 302.4,534.24 298.2,546.56 294,560 C 291.9,575.12 275.1,575.12 273,560 C 264.6,529.76 268.8,517.44 273,504 " stroke="#000000" fill="none" stroke-width="1" stroke-linejoin="round" stroke-linecap="round" vector-effect="non-scaling-stroke" />
<path d="M 252 504 C 260.4,534.24 256.2,546.56 252,560 C 249.9,575.12 233.1,575.12 231,560 C 222.6,529.76 226.8,517.44 231,504 C 228.9,488.88 212.1,488.88 210,504 C 218.4,534.24 214.2,546.56 210,560 C 207.9,575.12 191.1,575.12 189,560 C 180.6,529.76 184.8,517.44 189,504 " stroke="#000000" fill="none" stroke-width="1" stroke-linejoin="round" stroke-linecap="round" vector-effect="non-scaling-stroke" />
<path d="M 168 504 C 176.4,534.24 172.2,546.56 168,560 C 165.9,575.12 149.1,575.12 147,560 C 138.6,529.76 142.8,517.44 147,504 C 144.9,488.88 128.1,488.88 126,504 C 134.4,534.24 130.2,546.56 126,560 C 123.9,575.12 107.1,575.12 105,560 C 96.6,529.76 100.8,517.44 105,504 " stroke="#000000" fill="none" stroke-width="1" stroke-linejoin="round" stroke-linecap="round" vector-effect="non-scaling-stroke" />
<path d="M 84 504 C 92.4,534.24 88.2,546.56 84,560 C 81.9,575.12 65.1,575.12 63,560 C 54.6,529.76 58.8,517.44 63,504 C 60.9,488.88 44.1,488.88 42,504 C 50.4,534.24 46.2,546.56 42,560 C 39.9,575.12 23.1,575.12 21,560 C 12.6,529.76 16.8,517.44 21,504 " stroke="#000000" fill="none" stroke-width="1" stroke-linejoin="round" stroke-linecap="round" vector-effect="non-scaling-stroke" />
</g>
</svg>