<?xml version="1.0" encoding="UTF-8" standalone="no"?>
<svg
   width="223 mm"
   height="149 mm"
   viewBox="0 0 840 560"
   shape-rendering="geometricPrecision"
   style="stroke-linejoin: round; stroke-linecap: round;"
   version="1.1"
   id="svg2"
   sodipodi:docname="vector-image.svg"
   xmlns:inkscape="http://www.inkscape.org/namespaces/inkscape"
   xmlns:sodipodi="http://sodipodi.sourceforge.net/DTD/sodipodi-0.dtd"
   xmlns="http://www.w3.org/2000/svg"
   xmlns:svg="http://www.w3.org/2000/svg">
  <defs
     id="defs2" />
  <sodipodi:namedview
     id="namedview2"
     pagecolor="#ffffff"
     bordercolor="#000000"
     borderopacity="0.25"
     inkscape:showpageshadow="2"
     inkscape:pageopacity="0.0"
     inkscape:pagecheckerboard="0"
     inkscape:deskcolor="#d1d1d1" />
  <g
     id="1color-group-monochrome"
     data-color="#000000"
     data-name="Monochrome">
    <path
       d="m 0,0 c 0,0 -57.417071,186.18293 0,243.6 12.374369,12.37437 40.125631,12.37437 52.5,0 C 109.91707,186.18293 -4.9170706,57.417071 52.5,0 64.874369,-12.374369 92.625631,-12.374369 105,0 c 57.41707,57.417071 -57.417071,186.18293 0,243.6 12.37437,12.37437 40.12563,12.37437 52.5,0 57.41707,-57.41707 -57.41707,-186.182929 0,-243.6 12.37437,-12.374369 40.12563,-12.374369 52.5,0 57.41707,57.417071 -57.41707,186.18293 0,243.6 12.37437,12.37437 40.12563,12.37437 52.5,0 57.41707,-57.41707 -57.41707,-186.182929 0,-243.6 12.37437,-12.374369 40.12563,-12.374369 52.5,0 57.41707,57.417071 -57.41707,186.18293 0,243.6 12.37437,12.37437 40.12563,12.37437 52.5,0 57.41707,-57.41707 -57.41707,-186.182929 0,-243.6 12.37437,-12.374369 40.12563,-12.374369 52.5,0 57.41707,57.417071 -57.41707,186.18293 0,243.6 16.49916,16.49916 53.50084,16.49916 70,0 57.41707,-57.41707 -57.41707,-186.182929 0,-243.6 16.49916,-16.499158 53.50084,-16.499158 70,0 57.41707,57.417071 -57.41707,186.18293 0,243.6 16.49916,16.49916 53.50084,16.49916 70,0 57.41707,-57.41707 -57.41707,-186.182929 0,-243.6 16.49916,-16.499158 53.50084,-16.499158 70,0 57.41707,57.417071 -57.41707,186.18293 0,243.6 16.49916,16.49916 53.50084,16.49916 70,0 57.41707,-57.41707 -57.41707,-186.182929 0,-243.6 16.49916,-16.499158 70,0 70,0"
       stroke="#000000"
       fill="none"
       stroke-width="1"
       stroke-linejoin="round"
       stroke-linecap="round"
       vector-effect="non-scaling-stroke"
       id="path1"
       sodipodi:nodetypes="caaaaaaaaaaaaaaaaaaaaaaaaaaac" />
    <path
       d="m 840,280 c 0,0 57.41707,186.18293 0,243.6 -12.37437,12.37437 -40.12563,12.37437 -52.5,0 -57.41707,-57.41707 57.41707,-186.18293 0,-243.6 -12.37437,-12.37437 -40.12563,-12.37437 -52.5,0 -57.41707,57.41707 57.41707,186.18293 0,243.6 -12.37437,12.37437 -40.12563,12.37437 -52.5,0 -57.41707,-57.41707 57.41707,-186.18293 0,-243.6 -12.37437,-12.37437 -40.12563,-12.37437 -52.5,0 -57.41707,57.41707 57.41707,186.18293 0,243.6 -12.37437,12.37437 -40.12563,12.37437 -52.5,0 -57.41707,-57.41707 57.41707,-186.18293 0,-243.6 -12.37437,-12.37437 -40.12563,-12.37437 -52.5,0 -57.41707,57.41707 57.41707,186.18293 0,243.6 -12.37437,12.37437 -40.12563,12.37437 -52.5,0 -57.41707,-57.41707 57.41707,-186.18293 0,-243.6 -12.37437,-12.37437 -40.12563,-12.37437 -52.5,0 -57.41707,57.41707 57.41707,186.18293 0,243.6 -16.49916,16.49916 -53.50084,16.49916 -70,0 -57.41707,-57.41707 57.41707,-186.18293 0,-243.6 -16.49916,-16.49916 -53.50084,-16.49916 -70,0 -57.41707,57.41707 57.41707,186.18293 0,243.6 -16.49916,16.49916 -53.50084,16.49916 -70,0 -57.41707,-57.41707 57.41707,-186.18293 0,-243.6 -16.49916,-16.49916 -53.50084,-16.49916 -70,0 -57.417071,57.41707 57.41707,186.18293 0,243.6 -16.49916,16.49916 -53.500842,16.49916 -70,0 C 12.582929,466.18293 127.41707,337.41707 70,280 53.500842,263.50084 0,280 0,280"
       stroke="#000000"
       fill="none"
       stroke-width="1"
       stroke-linejoin="round"
       stroke-linecap="round"
       vector-effect="non-scaling-stroke"
       id="path2"
       sodipodi:nodetypes="caaaaaaaaaaaaaaaaaaaaaaaaaaac" />
  </g>
</svg>
